<?xml version="1.0" encoding="UTF-8"?>
<svg xmlns="http://www.w3.org/2000/svg" version="1.1" viewBox="0 0 447.9 99.2">
  <defs>
    <style>
      .cls-1 {
        fill: none;
      }

      .cls-1, .cls-2 {
        stroke-width: 0px;
      }

      .cls-2 {
        fill: #fff;
      }
    </style>
  </defs>
  <g id="Rektangler">
    <rect class="cls-1" width="447.9" height="99.2"/>
  </g>
  <g id="Enhet_avdeling" data-name="Enhet, avdeling">
    <g>
      <path class="cls-2" d="M106.3,57.6c.6-2,.6-2.2-.5-2.5h-.4c-.1-.2-.1-.5.1-.6.7,0,1.4,0,2.3,0h3.9c1.3,0,2.3,0,2.9,0-.1.4-.6,2-.9,2.8,0,.2-.5.1-.5,0,.1-1.1.2-1.6-.7-1.9-.5-.1-1.1-.2-2.2-.2h-1.1c-.6,0-.6,0-.8.7l-1.4,4.6c-.1.4-.1.5.3.5h1.4c2,0,2.4-.1,2.9-1l.4-.6c.1-.1.5-.1.5,0-.1.4-.5,1.2-.7,2s-.5,1.6-.5,2.1c-.1.1-.4.1-.5,0v-.8c0-.7-.4-.9-2.1-.9h-1.5c-.5,0-.5,0-.7.6l-.9,3c-.6,1.9-.7,2.4.4,2.5h.8c.1.2,0,.5,0,.6-1.2,0-1.9,0-2.8,0s-1.5,0-2.4,0c-.2-.1-.2-.4,0-.5h.6c1-.2,1.2-.4,1.9-2.5l2.4-7.8Z"/>
      <path class="cls-2" d="M120.9,59.3c.4-.2.9,0,1,.3-.3.8-2.1,5.4-2.8,7.3-.1.4,0,.5.1.5.4,0,1-.4,2.1-1.4.1,0,.3.1.3.3-.9,1.2-2.4,2.3-3.5,2.3s-.6-.4-.6-.6,0-.3.2-.8l.7-1.9h0c-1.5,1.8-3.6,3.3-4.6,3.3s-.9-.6-.9-1.2.5-2.1,1.8-4c1-1.4,1.9-2.2,2.8-2.7.8-.5,1.3-.6,1.9-.6s.4,0,.5.1c0,0,.3.2.4.4l.6-1.3ZM117.3,61.7c-1.3,1.2-2.6,3.9-2.6,5.4s.1.4.3.4.8-.3,2-1.4c1.6-1.5,2.5-3.3,2.8-4.5-.1-.4-.5-.8-1-.8s-.8.2-1.5.8Z"/>
      <path class="cls-2" d="M126.7,56.6c.5-1.5.5-1.7.1-1.9l-.4-.2c-.1,0-.1-.2,0-.3.6-.3,1.6-.6,2.5-.8h.1c-.2.7-.4,1.4-1,3.2l-2.1,6.2h0c.6-.8,1.3-1.5,2.1-2.1.6-.4,1.4-.8,2.3-.8s1.5.7,1.5,1.1,0,.8-.9,1.5c-1,.9-2,1.6-3.3,1.8-.1,0-.1.3,0,.4.2.6.5,1.5.8,2,.2.5.5.7.7.7s.7-.3,1.3-1c.2,0,.3,0,.3.2-.7,1.6-1.8,2-2.1,2s-.6-.2-1-.8c-.2-.5-.8-1.7-1-2.2-.2-.5-.4-.8-.8-.7-.4.1-.5.2-.8.8l-1.1,2.6c0,.2-.2.3-.4.3s-.8,0-.7-.5l3.8-11.5ZM129.6,60.7c-.5,0-1.3.5-2,1.1-.8.6-1.6,1.7-1.9,2.3,0,.2,0,.4.2.3.4,0,1.6-.4,3.1-1.4.9-.6,1.3-1.3,1.3-1.8s-.2-.5-.7-.5Z"/>
      <path class="cls-2" d="M134.8,66.5c-.2.5,0,.7.1.7s1.1-.7,2.2-1.7c1.9-1.9,3-4.3,3.7-5.6.4,0,.9.1,1,.4-.2.6-1.6,4-2.4,6.5-.1.3-.1.5,0,.5.4,0,1.5-1,2-1.6.2,0,.4,0,.4.3-.5,1-2.5,2.6-3.6,2.6s-.6-.4-.5-.7l1.4-3.8h0c-1.5,1.9-4.1,4.5-5.2,4.5s-1-.9-.6-1.8l1.9-5.1c.1-.4.2-.6,0-.6-.4,0-1.5.9-2,1.4-.2,0-.4-.1-.4-.3.5-.8,2.6-2.5,3.6-2.5s.8.3.6.6l-2.3,6.1Z"/>
      <path class="cls-2" d="M144.9,67c-.2.5-.1.7,0,.7.5,0,1.4-1,2.4-2.1.2,0,.3,0,.3.3-.5,1-1.9,2.8-3.6,2.8s-.8-.3-.8-.6.1-.7.5-1.8l3.3-9.9c.5-1.5.3-1.7,0-1.8l-.4-.2c-.1,0-.1-.3,0-.3.4-.1,1.7-.5,2.6-.6h.1c-.3.9-.5,1.5-1.2,3.7l-3.3,9.8Z"/>
      <path class="cls-2" d="M152.6,60.9l-1.9,5.7c-.1.4,0,.5.1.5.3,0,1.7-1.1,2.4-1.9.2,0,.3.1.3.4-1.2,1.7-3.1,3-4,3s-.6-.3-.6-.6,0-.6.3-1.2l2-5.9h-1.6c0-.2,0-.5.2-.6l1.7-.3,1.2-2.1c.2-.1.6,0,.8.1l-.6,2h2.3c.1.2,0,.6-.2.8h-2.3Z"/>
      <path class="cls-2" d="M161.8,61.1c0,1.6-2.1,2.6-5.1,3.5-.1.4-.3,1-.3,1.9s.4,1.2,1,1.2,1.3-.4,2.2-1.2c.2,0,.3.2.3.4-1.3,1.6-2.5,1.9-3.3,1.9-1.2,0-1.7-1.2-1.7-2.2s.8-3.9,3.1-5.6c1.1-.8,1.9-1,2.5-1s1.3.7,1.3,1.2ZM158.5,61.5c-.8.9-1.3,1.8-1.5,2.4,1.4-.4,2-.8,2.8-1.5.6-.6.8-1.2.8-1.4s-.1-.5-.5-.5-.8.2-1.6,1Z"/>
      <path class="cls-2" d="M166.3,60.9l-1.9,5.7c-.1.4,0,.5.1.5.3,0,1.7-1.1,2.4-1.9.2,0,.3.1.3.4-1.2,1.7-3.1,3-4,3s-.6-.3-.6-.6,0-.6.3-1.2l2-5.9h-1.6c0-.2,0-.5.2-.6l1.7-.3,1.2-2.1c.2-.1.6,0,.8.1l-.6,2h2.3c.1.2,0,.6-.2.8h-2.3Z"/>
      <path class="cls-2" d="M178,60.9c-.1.4-.3,1-.5,1.9-.6,2.3-1.2,4.3-1.9,6.6-.5,1.9-1.2,2.9-1.6,3.4-.3.3-1.3,1.1-2.5,1.1s-1.5-.7-1.5-1,.2-.8.5-.9c.2-.1.4,0,.5,0,.5.5,1.1.9,1.6.9s.9-.1,1.3-1.8c1-3.3,1.7-6.9,2.7-10.3h-1.7c-.2-.2-.1-.6.1-.8h1.8c.5-1.9,1.1-3.5,2.3-5,1-1.2,2.1-1.7,3.3-1.7s1.6.5,1.6,1.4-.6,1.2-.9,1.2-.3-.2-.3-.3c0-1.1-.6-1.5-1.2-1.5s-1,.4-1.5,1.1c-1,1.4-1.4,2.9-1.9,4.9h2.6c.1.2.1.5-.2.8h-2.6Z"/>
      <path class="cls-2" d="M187.2,62.5c0,1.1-.7,3.1-2.2,4.7-1.3,1.3-2.4,1.4-3,1.4-1.3,0-2.2-1-2.1-2.8,0-1.3.9-3.3,2.3-4.7,1.1-1,2-1.4,2.9-1.4,1.5,0,2.2,1.1,2.1,2.6ZM183.4,61.5c-1.2,1.6-2,4.1-2.1,5.2,0,.7.2,1.3.9,1.3s1-.2,1.6-1.1c.9-1.2,1.9-4,1.9-5.1,0-.6-.1-1.4-.8-1.4s-.9.2-1.5,1Z"/>
      <path class="cls-2" d="M192.1,61.8l-.9,2.6h.1c.6-1.2,1.6-2.8,2.2-3.5.5-.6,1-1.1,1.5-1.1s.8.7.8,1-.2.9-.4,1.2c-.3.3-.6.3-.7-.1-.1-.5-.2-.8-.4-.8s-.4.2-.7.6c-1.3,1.6-2.4,4.2-3.5,6.6,0,.2-.2.2-.4.2s-.8,0-.7-.5c.3-.8,1.6-4.5,2.1-6.6,0-.2,0-.4-.2-.4-.5,0-1.1.6-1.5,1.1-.2,0-.4,0-.3-.3.7-1.1,1.5-2,2.5-2s.7,1.4.5,2Z"/>
      <path class="cls-2" d="M204.3,64.3h0c1.5-2.2,3.5-4.5,5.1-4.5s1.2.4,1.2,1.1-.2,1-.3,1.5c-.4,1-1.9,4.4-1.9,4.6,0,.2-.1.4,0,.4.4,0,1.4-.7,2-1.4.3,0,.3.1.3.3-.8,1.3-2.4,2.3-3.6,2.3s-.5-.3-.5-.5,0-.3.5-1.4c.4-1,1.2-3.1,1.7-4.1.2-.4.4-1.1.4-1.5s0-.5-.3-.5c-.5,0-1.7,1-2.9,2.5-1.1,1.4-2,3-3.2,5.3-.1.2-.2.2-.4.2s-.8,0-.6-.5c.1-.3,2.3-6.3,2.4-6.6.1-.3.1-.5,0-.5-.5,0-1.2.4-1.9,1-.2,0-.3-.1-.2-.3.8-1.1,2.1-1.9,3.1-1.9s.7.4.5.9l-1.4,3.6Z"/>
      <path class="cls-2" d="M219.7,59.3c.4-.2.9,0,1,.3-.3.8-2.1,5.4-2.8,7.3-.1.4,0,.5.1.5.4,0,1-.4,2.1-1.4.1,0,.3.1.3.3-.9,1.2-2.4,2.3-3.5,2.3s-.6-.4-.6-.6,0-.3.2-.8l.7-1.9h0c-1.5,1.8-3.6,3.3-4.6,3.3s-.9-.6-.9-1.2.5-2.1,1.8-4c1-1.4,1.9-2.2,2.8-2.7.8-.5,1.3-.6,1.9-.6s.4,0,.5.1c0,0,.3.2.4.4l.6-1.3ZM216.1,61.7c-1.3,1.2-2.6,3.9-2.6,5.4s.1.4.3.4.8-.3,2-1.4c1.6-1.5,2.5-3.3,2.8-4.5-.1-.4-.5-.8-1-.8s-.8.2-1.5.8Z"/>
      <path class="cls-2" d="M225.7,60.9l-1.9,5.7c-.1.4,0,.5.1.5.3,0,1.7-1.1,2.4-1.9.2,0,.3.1.3.4-1.2,1.7-3.1,3-4,3s-.6-.3-.6-.6,0-.6.3-1.2l2-5.9h-1.6c0-.2,0-.5.2-.6l1.7-.3,1.2-2.1c.2-.1.6,0,.8.1l-.6,2h2.3c.1.2,0,.6-.2.8h-2.3Z"/>
      <path class="cls-2" d="M230.2,66.5c-.2.5,0,.7.1.7s1.1-.7,2.2-1.7c1.9-1.9,3-4.3,3.7-5.6.4,0,.9.1,1,.4-.2.6-1.6,4-2.4,6.5-.1.3-.1.5,0,.5.4,0,1.5-1,2-1.6.2,0,.4,0,.4.3-.5,1-2.5,2.6-3.6,2.6s-.6-.4-.5-.7l1.4-3.8h0c-1.5,1.9-4.1,4.5-5.2,4.5s-1-.9-.6-1.8l1.9-5.1c.1-.4.2-.6,0-.6-.4,0-1.5.9-2,1.4-.2,0-.4-.1-.4-.3.5-.8,2.6-2.5,3.6-2.5s.8.3.6.6l-2.3,6.1Z"/>
      <path class="cls-2" d="M242.2,61.8l-.9,2.6h.1c.6-1.2,1.6-2.8,2.2-3.5.5-.6,1-1.1,1.5-1.1s.8.7.8,1-.2.9-.4,1.2c-.3.3-.6.3-.7-.1-.1-.5-.2-.8-.4-.8s-.4.2-.7.6c-1.3,1.6-2.4,4.2-3.5,6.6,0,.2-.2.2-.4.2s-.8,0-.7-.5c.3-.8,1.6-4.5,2.1-6.6,0-.2,0-.4-.2-.4-.5,0-1.1.6-1.5,1.1-.2,0-.4,0-.3-.3.7-1.1,1.5-2,2.5-2s.7,1.4.5,2Z"/>
      <path class="cls-2" d="M248.8,61.6c.1-.4.1-.6-.1-.6-.4,0-1.3.8-1.9,1.5-.2,0-.3-.2-.3-.4.7-.9,2.1-2.3,3.3-2.3s.9.6.6,1.4l-1.8,4.6c-.1.3-.2.7-.2,1s.2.8.6.8,1.3-.5,2.3-1.5c1.2-1.4,1.8-3,1.8-4s0-1-.2-1.5c0-.4.4-.8.8-.8.7,0,.8.8.8,1.3,0,1.5-1.6,4.5-3.4,6-1.6,1.3-2.8,1.5-3.3,1.5s-1-.6-1-1.3.2-1.2.5-2l1.4-3.7Z"/>
      <path class="cls-2" d="M258.1,61.6c.1-.2.1-.4,0-.4s-.7.2-1.7,1.1c-.2,0-.3-.2-.3-.4,1.1-1.3,2.8-2.1,3.4-2.1s.2.1.3.2c.1.1.1.3-.1.9l-2.5,5.9c0,.2-.1.5,0,.5.4,0,1.5-.7,2.2-1.5.2,0,.3.2.3.4-.3.6-2.5,2.5-3.9,2.5s-.2,0-.3-.2c-.1-.1-.2-.3,0-.6l2.6-6.3ZM260.5,56.3c0,.6-.5,1.3-1.1,1.3s-.7-.4-.7-.8.3-1.3,1.1-1.3.7.3.7.8Z"/>
      <path class="cls-2" d="M265.2,60.9l-1.9,5.7c-.1.4,0,.5.1.5.3,0,1.7-1.1,2.4-1.9.2,0,.3.1.3.4-1.2,1.7-3.1,3-4,3s-.6-.3-.6-.6,0-.6.3-1.2l2-5.9h-1.6c0-.2,0-.5.2-.6l1.7-.3,1.2-2.1c.2-.1.6,0,.8.1l-.6,2h2.3c.1.2,0,.6-.2.8h-2.3Z"/>
      <path class="cls-2" d="M274.5,61.1c0,1.6-2.1,2.6-5.1,3.5-.1.4-.3,1-.3,1.9s.4,1.2,1,1.2,1.3-.4,2.2-1.2c.2,0,.3.2.3.4-1.3,1.6-2.5,1.9-3.3,1.9-1.3,0-1.7-1.2-1.7-2.2s.8-3.9,3.1-5.6c1.1-.8,1.9-1,2.5-1s1.3.7,1.3,1.2ZM271.1,61.5c-.8.9-1.3,1.8-1.5,2.4,1.4-.4,2-.8,2.8-1.5.6-.6.8-1.2.8-1.4s-.1-.5-.5-.5-.8.2-1.6,1Z"/>
      <path class="cls-2" d="M277.8,64.3h0c1.5-2.2,3.5-4.5,5.1-4.5s1.2.4,1.2,1.1-.2,1-.3,1.5c-.4,1-1.9,4.4-1.9,4.6,0,.2-.1.4,0,.4.4,0,1.4-.7,2-1.4.3,0,.3.1.3.3-.8,1.3-2.4,2.3-3.6,2.3s-.5-.3-.5-.5,0-.3.5-1.4c.4-1,1.2-3.1,1.7-4.1.2-.4.4-1.1.4-1.5s0-.5-.3-.5c-.5,0-1.7,1-2.9,2.5-1.1,1.4-2,3-3.2,5.3-.1.2-.2.2-.4.2s-.8,0-.6-.5c.1-.3,2.3-6.3,2.4-6.6.1-.3.1-.5,0-.5-.5,0-1.2.4-1.9,1-.2,0-.3-.1-.2-.3.8-1.1,2.1-1.9,3.1-1.9s.7.4.5.9l-1.4,3.6Z"/>
      <path class="cls-2" d="M290.8,61c0,.3-.2.6-.4.6-.1,0-.3,0-.4-.2-.4-.4-.6-.7-1.3-.7s-.9.5-.9.8.1.9.7,1.9c.5.9.8,1.4.8,2.3,0,.6-.3,1.3-1.1,2-.5.5-1.3.8-2.1.8s-1.3-.6-1.3-1.1,0-.4.3-.7c.2-.1.4-.1.6,0,.3.3.9.8,1.4.8s1-.5,1-1.2-.2-1-.8-1.8c-.5-.9-.7-1.6-.7-1.9,0-.8.4-1.4,1.3-2.2.6-.5,1.3-.7,1.5-.7.8,0,1.3.7,1.3,1.2Z"/>
      <path class="cls-2" d="M295.3,56.6c.5-1.5.5-1.7.1-1.9l-.4-.2c-.1,0-.1-.2,0-.3.6-.3,1.6-.6,2.5-.8h.1c-.2.7-.4,1.4-1,3.2l-2.1,6.2h0c.6-.8,1.3-1.5,2.1-2.1.6-.4,1.4-.8,2.3-.8s1.5.7,1.5,1.1,0,.8-.9,1.5c-1,.9-2,1.6-3.3,1.8-.1,0-.1.3,0,.4.2.6.5,1.5.8,2,.2.5.5.7.7.7s.7-.3,1.3-1c.2,0,.3,0,.3.2-.7,1.6-1.8,2-2.1,2s-.6-.2-1-.8c-.2-.5-.8-1.7-1-2.2-.2-.5-.4-.8-.8-.7-.4.1-.5.2-.8.8l-1.1,2.6c0,.2-.2.3-.4.3s-.8,0-.7-.5l3.8-11.5ZM298.1,60.7c-.5,0-1.3.5-2,1.1-.8.6-1.6,1.7-1.9,2.3,0,.2,0,.4.2.3.4,0,1.6-.4,3.1-1.4.9-.6,1.3-1.3,1.3-1.8s-.2-.5-.7-.5Z"/>
      <path class="cls-2" d="M308.6,59.3c.4-.2.9,0,1,.3-.3.8-2.1,5.4-2.8,7.3-.1.4,0,.5.1.5.4,0,1-.4,2.1-1.4.1,0,.3.1.3.3-.9,1.2-2.4,2.3-3.5,2.3s-.6-.4-.6-.6,0-.3.2-.8l.7-1.9h0c-1.5,1.8-3.6,3.3-4.6,3.3s-.9-.6-.9-1.2.5-2.1,1.8-4c1-1.4,1.9-2.2,2.8-2.7.8-.5,1.3-.6,1.9-.6s.4,0,.5.1c0,0,.3.2.4.4l.6-1.3ZM305,61.7c-1.3,1.2-2.6,3.9-2.6,5.4s.1.4.3.4.8-.3,2-1.4c1.6-1.5,2.5-3.3,2.8-4.5-.1-.4-.5-.8-1-.8s-.8.2-1.5.8Z"/>
      <path class="cls-2" d="M315.2,60.2c.2,0,.4,0,.8,0,1,0,2.8.4,2.8,2.4s-1.2,3.6-2.8,4.9c-1.3,1.1-2.9,1.2-3,1.2-.2,0-.4,0-.6-.1-.2,0-.3.2-.3.4l-.9,2.5c-.6,1.6-.5,1.8.2,1.9h.9c.1.3.1.5,0,.6-1.6,0-3.1,0-4.5.1-.1-.1-.1-.3,0-.5h.5c1.2-.3,1.2-.8,1.6-1.6l3.9-10.9c-.8.2-1.2.4-2.1.9-.2,0-.3-.2-.2-.4.7-.5,1.6-.9,2.6-1.1l.6-1.7c.3-.2,1.1,0,1.2.3l-.4,1.3ZM312.9,66.9c0,.2,0,.4,0,.6.1.2.4.5.8.5s1.4-.3,2.3-1.7c1-1.5,1.2-3,1.2-3.9s-.8-1.6-1.6-1.6-.4,0-.5,0l-2.2,6.1Z"/>
      <path class="cls-2" d="M333.2,62.5c0,1.1-.7,3.1-2.2,4.7-1.3,1.3-2.4,1.4-3,1.4-1.3,0-2.2-1-2.1-2.8,0-1.3.9-3.3,2.3-4.7,1.1-1,2-1.4,2.9-1.4,1.5,0,2.2,1.1,2.1,2.6ZM329.4,61.5c-1.2,1.6-2,4.1-2.1,5.2,0,.7.2,1.3.9,1.3s1-.2,1.6-1.1c.9-1.2,1.9-4,1.9-5.1,0-.6-.1-1.4-.8-1.4s-.9.2-1.5,1Z"/>
      <path class="cls-2" d="M340.3,60c.2,0,.4.2.5.2.2,0,.6,0,1-.1.4-.1.8-.2.9-.2.3,0,.4.2.4.5,0,.5-.2.6-.5.6s-.5,0-.7-.1c-.2,0-.6-.1-.8-.1s-.2,0-.2.1c0,.2.1.5.1.8,0,1.7-1.2,3.3-2.6,4.2-.2.1-1,.4-1.5.5-.2.1-.5.4-.5.7s.1.6.7,1c.5.3,1.3.8,2,1.2,1.2.7,1.6,1.4,1.6,2,0,1.2-1.7,2.5-5.1,2.5s-3.3-.6-3.3-2,2.4-2.6,3.6-2.9c-.5-.4-.7-.7-.7-1s.6-1.2.9-1.6c-.4-.1-1.5-.5-1.5-1.9s.6-2.6,1.7-3.5c1-.9,2-1.2,3.1-1.2s.4.1.7.2ZM339.6,71.8c0-.4-.2-.8-.9-1.3-.9-.6-1.6-1-1.9-1-.5,0-1.3.3-1.9.8-.6.4-.8.9-.8,1.4,0,1,1.4,1.6,2.8,1.6s2.8-.4,2.8-1.4ZM338,61.3c-.8.9-1.9,2.8-1.9,3.8s.3.7.6.7.8-.1,1.4-.8c1.2-1.4,1.9-3.2,1.9-3.9s-.3-.7-.6-.7-.8.1-1.4.9Z"/>
      <path class="cls-2" d="M352.3,60.9l-1.9,5.7c-.1.4,0,.5.1.5.3,0,1.7-1.1,2.4-1.9.2,0,.3.1.3.4-1.2,1.7-3.1,3-4,3s-.6-.3-.6-.6,0-.6.3-1.2l2-5.9h-1.6c0-.2,0-.5.2-.6l1.7-.3,1.2-2.1c.2-.1.6,0,.8.1l-.6,2h2.3c.1.2,0,.6-.2.8h-2.3Z"/>
      <path class="cls-2" d="M361.5,61.1c0,1.6-2.1,2.6-5.1,3.5-.1.4-.3,1-.3,1.9s.4,1.2,1,1.2,1.3-.4,2.2-1.2c.2,0,.3.2.3.4-1.3,1.6-2.5,1.9-3.3,1.9-1.3,0-1.7-1.2-1.7-2.2s.8-3.9,3.1-5.6c1.1-.8,1.9-1,2.5-1s1.3.7,1.3,1.2ZM358.2,61.5c-.8.9-1.3,1.8-1.5,2.4,1.4-.4,2-.8,2.8-1.5.6-.6.8-1.2.8-1.4s-.1-.5-.5-.5-.8.2-1.6,1Z"/>
      <path class="cls-2" d="M365.8,56.6c.5-1.5.5-1.7.1-1.9l-.4-.2c-.1,0-.1-.2,0-.3.6-.3,1.6-.6,2.5-.8h.1c-.2.7-.4,1.4-1,3.2l-2.1,6.2h0c.6-.8,1.3-1.5,2.1-2.1.6-.4,1.4-.8,2.3-.8s1.5.7,1.5,1.1,0,.8-.9,1.5c-1,.9-2,1.6-3.3,1.8-.1,0-.1.3,0,.4.2.6.5,1.5.8,2,.2.5.5.7.7.7s.7-.3,1.3-1c.2,0,.3,0,.3.2-.7,1.6-1.8,2-2.1,2s-.6-.2-1-.8c-.2-.5-.8-1.7-1-2.2-.2-.5-.4-.8-.8-.7-.4.1-.5.2-.8.8l-1.1,2.6c0,.2-.2.3-.4.3s-.8,0-.7-.5l3.8-11.5ZM368.7,60.7c-.5,0-1.3.5-2,1.1-.8.6-1.6,1.7-1.9,2.3,0,.2,0,.4.2.3.4,0,1.6-.4,3.1-1.4.9-.6,1.3-1.3,1.3-1.8s-.2-.5-.7-.5Z"/>
      <path class="cls-2" d="M374.5,64.3h0c1.5-2.2,3.5-4.5,5.1-4.5s1.2.4,1.2,1.1-.2,1-.3,1.5c-.4,1-1.9,4.4-1.9,4.6,0,.2-.1.4,0,.4.4,0,1.4-.7,2-1.4.3,0,.3.1.3.3-.8,1.3-2.4,2.3-3.6,2.3s-.5-.3-.5-.5,0-.3.5-1.4c.4-1,1.2-3.1,1.7-4.1.2-.4.4-1.1.4-1.5s0-.5-.3-.5c-.5,0-1.7,1-2.9,2.5-1.1,1.4-2,3-3.2,5.3-.1.2-.2.2-.4.2s-.8,0-.6-.5c.1-.3,2.3-6.3,2.4-6.6.1-.3.1-.5,0-.5-.5,0-1.2.4-1.9,1-.2,0-.3-.1-.2-.3.8-1.1,2.1-1.9,3.1-1.9s.7.4.5.9l-1.4,3.6Z"/>
      <path class="cls-2" d="M389.8,62.5c0,1.1-.7,3.1-2.2,4.7-1.3,1.3-2.4,1.4-3,1.4-1.3,0-2.2-1-2.1-2.8,0-1.3.9-3.3,2.3-4.7,1.1-1,2-1.4,2.9-1.4,1.5,0,2.2,1.1,2.1,2.6ZM386,61.5c-1.2,1.6-2,4.1-2.1,5.2,0,.7.2,1.3.9,1.3s1-.2,1.6-1.1c.9-1.2,1.9-4,1.9-5.1,0-.6-.1-1.4-.8-1.4s-.9.2-1.5,1Z"/>
      <path class="cls-2" d="M392.9,67c-.2.5-.1.7,0,.7.5,0,1.4-1,2.4-2.1.2,0,.3,0,.3.3-.5,1-1.9,2.8-3.6,2.8s-.8-.3-.8-.6.1-.7.5-1.8l3.3-9.9c.5-1.5.3-1.7,0-1.8l-.4-.2c-.1,0-.1-.3,0-.3.4-.1,1.7-.5,2.6-.6h.1c-.3.9-.5,1.5-1.2,3.7l-3.3,9.8Z"/>
      <path class="cls-2" d="M404,62.5c0,1.1-.7,3.1-2.2,4.7-1.3,1.3-2.4,1.4-3,1.4-1.3,0-2.2-1-2.1-2.8,0-1.3.9-3.3,2.3-4.7,1.1-1,2-1.4,2.9-1.4,1.5,0,2.2,1.1,2.1,2.6ZM400.2,61.5c-1.2,1.6-2,4.1-2.1,5.2,0,.7.2,1.3.9,1.3s1-.2,1.6-1.1c.9-1.2,1.9-4,1.9-5.1,0-.6-.1-1.4-.8-1.4s-.9.2-1.5,1Z"/>
      <path class="cls-2" d="M411.1,60c.2,0,.4.2.5.2.2,0,.6,0,1-.1.4-.1.8-.2.9-.2.3,0,.4.2.4.5,0,.5-.2.6-.5.6s-.5,0-.7-.1c-.2,0-.6-.1-.8-.1s-.2,0-.2.1c0,.2.1.5.1.8,0,1.7-1.2,3.3-2.6,4.2-.2.1-1,.4-1.5.5-.2.1-.5.4-.5.7s.1.6.7,1c.5.3,1.3.8,2,1.2,1.2.7,1.6,1.4,1.6,2,0,1.2-1.7,2.5-5.1,2.5s-3.3-.6-3.3-2,2.4-2.6,3.6-2.9c-.5-.4-.7-.7-.7-1s.6-1.2.9-1.6c-.4-.1-1.5-.5-1.5-1.9s.6-2.6,1.7-3.5c1-.9,2-1.2,3.1-1.2s.4.1.7.2ZM410.4,71.8c0-.4-.2-.8-.9-1.3-.9-.6-1.6-1-1.9-1-.5,0-1.3.3-1.9.8-.6.4-.8.9-.8,1.4,0,1,1.4,1.6,2.8,1.6s2.8-.4,2.8-1.4ZM408.8,61.3c-.8.9-1.9,2.8-1.9,3.8s.3.7.6.7.8-.1,1.4-.8c1.2-1.4,1.9-3.2,1.9-3.9s-.3-.7-.6-.7-.8.1-1.4.9Z"/>
      <path class="cls-2" d="M416.5,61.6c.1-.2.1-.4,0-.4s-.7.2-1.7,1.1c-.2,0-.3-.2-.3-.4,1.1-1.3,2.8-2.1,3.4-2.1s.2.1.3.2c.1.1.1.3-.1.9l-2.5,5.9c0,.2-.1.5,0,.5.4,0,1.5-.7,2.2-1.5.2,0,.3.2.3.4-.3.6-2.5,2.5-3.9,2.5s-.2,0-.3-.2c-.1-.1-.2-.3,0-.6l2.6-6.3ZM418.9,56.3c0,.6-.5,1.3-1.1,1.3s-.7-.4-.7-.8.3-1.3,1.1-1.3.7.3.7.8Z"/>
    </g>
  </g>
  <g id="Universitetet_i_Bergen_outline" data-name="Universitetet i Bergen outline">
    <path id="Universitetet_i_Bergen_outline-2" data-name="Universitetet i Bergen outline" class="cls-2" d="M115.8,32.3h0c-.7,0-1.3,0-2.2,0s-1.6,0-2.3,0h0s0,0,0,0c0,0-.1.1-.1.3,0,.1,0,.3,0,.3h0s.5,0,.5,0c.5,0,.8.2,1,.4.2.4.4,1.9.4,4.2v2.4c0,4.5-2.2,5.4-4,5.4-2.8,0-4.1-1.7-4.1-5.4v-4.5c0-2.1,0-2.4,1.2-2.5h.5s0,0,0,0c0,0,.1-.2.1-.3,0-.1,0-.3-.2-.3h0s0,0,0,0c-1,0-1.7,0-2.5,0s-1.6,0-2.6,0h0s0,0,0,0c-.1,0-.2.2-.2.3,0,.1,0,.3.1.3h0s.5,0,.5,0c1.1,0,1.2.4,1.2,2.5v4.9c0,2.5.5,4,1.6,4.9.9.8,2.2,1.2,3.9,1.2s3.1-.6,4-1.5c1-1.1,1.5-2.7,1.5-5v-2.3c0-1.1,0-3.5.3-4.2.1-.2.5-.4,1-.4h.5s0,0,0,0c0,0,.1-.2,0-.4,0-.1,0-.2-.2-.2h0ZM135.3,32.3h0c-.7,0-1.2,0-2.1,0s-1.4,0-2.4,0h0s0,0,0,0c0,0-.2.1-.2.3,0,.1,0,.3.1.4h0s.4,0,.4,0c.7,0,1.1.2,1.2.4.3.4.4,1.9.4,4.2v4.4c0,.3,0,.6,0,.8-.8-.8-1.6-1.7-2.6-2.8-.3-.3-.5-.6-.8-.9l-2-2.2h0c-2-2.3-3.2-3.8-3.5-4.5h0c0,0,0,0,0,0-.2,0-.6,0-.9,0s-1.5,0-2.3,0h0s0,0,0,0c0,0-.1.1-.2.3,0,.1,0,.3.1.4h0s.4,0,.4,0c.6,0,1,.2,1.2.5.4.4.4.8.4,1.4v6.1c0,1.1,0,3.3-.3,4,0,.2-.4.3-.8.4h-.6c0,0,0,0,0,0,0,0-.1.2-.1.3,0,.1,0,.2.2.3h0s0,0,0,0c.7,0,1.3,0,2.1,0s1.4,0,2.4,0h0s0,0,0,0c0,0,.1-.1.2-.3,0-.1,0-.3,0-.4h0s-.7,0-.7,0c-.5,0-.9-.2-1-.4-.2-.4-.4-1.9-.4-4.2v-4.5c0-.4,0-.9,0-1.2.3.3.9,1.1,1.5,1.7.3.4.7.8.9,1l4.8,5.4c1.6,1.8,2.4,2.7,2.6,3.1h0s0,0,0,0c.2,0,.4-.1.5-.3h0s0,0,0,0c0-.2,0-1.1,0-3.6v-5.2c0-1.1,0-3.3.3-3.9,0-.1.4-.3,1.1-.4h.3s0,0,0,0c0,0,.1-.2.1-.4,0-.1,0-.2-.2-.3h0ZM144.9,33h.5s0,0,0,0c.1,0,.1-.2.1-.3,0-.1,0-.3-.2-.3h0s0,0,0,0c-1,0-1.7,0-2.6,0s-1.6,0-2.6,0h0s0,0,0,0c-.1,0-.1.2-.2.3,0,0,0,.2.1.3h0s.5,0,.5,0c1.1,0,1.2.4,1.2,2.6v7.3c0,2.2,0,2.4-1.2,2.5h-.5c0,0,0,0,0,0,0,0-.1.3,0,.4,0,.1,0,.2.2.3h0s0,0,0,0c1,0,1.7,0,2.6,0s1.5,0,2.6,0h0s0,0,0,0c.1,0,.2-.2.2-.3,0,0,0-.2-.1-.3h-.5c-1.1-.2-1.2-.5-1.2-2.6v-7.3c0-2.2,0-2.5,1.2-2.6h0ZM164.3,32.3h0c-.7,0-1.3,0-2,0s-1.6,0-2.1,0h0s0,0,0,0c0,0-.2.2-.2.3,0,.1,0,.3.1.3h0s.4,0,.4,0c.8,0,.9.3.9.3,0,.1,0,.4-.2.8-.4.9-1.3,3.3-1.9,4.6-.1.3-.3.8-.5,1.3-.4,1-.9,2.2-1.4,3.2-1-2.3-1.9-4.6-2.9-6.9-.6-1.5-1-2.6-1-2.9,0-.1.2-.2.9-.3h.3s0,0,0,0c0,0,.1-.2.1-.3,0-.1,0-.3-.2-.3h0s0,0,0,0c-.9,0-1.6,0-2.5,0s-1.5,0-2.1,0h0s0,0,0,0c0,0-.2.2-.2.3,0,.1,0,.3.1.3h0s.4,0,.4,0c.8,0,1.1.5,1.6,1.6l3.6,8.9c.3.7.7,1.8.9,2.7h0s0,0,0,0c.1,0,.2,0,.3,0s.2,0,.3,0h0s0,0,0,0c.4-1.1,1.4-3.6,2.1-5.4l1.1-2.5c1-2.2,1.8-3.8,2.3-4.7.3-.4.6-.6,1-.7h.6s0,0,0,0c0,0,.1-.2,0-.4,0-.1,0-.2-.1-.3h0ZM179.3,43c-.1,0-.3,0-.4,0h0c-.5,1-1.1,1.8-1.4,2-.5.2-1.1.3-2.6.3s-2.2-.2-2.4-.4c-.3-.3-.4-1-.4-2.1v-2.9c0-.5,0-.5.6-.5h1.2c.7,0,1.3,0,1.6.1.4,0,.5.4.6.7l.2.8h0c0,.1.3.2.4.1.1,0,.2,0,.3-.1h0c0-.2,0-.5,0-.8,0-.4,0-.8,0-1.2s0-.9,0-1.3c0-.3,0-.6,0-.8h0s0,0,0,0c0,0-.2-.1-.3-.1-.1,0-.3,0-.4.1l-.2.9c-.1.5-.2.6-.4.7-.2,0-.8.1-1.7.1h-1.2q-.6,0-.6-.5v-4.1q0-.7.5-.7h1.5c.9,0,1.6,0,2,.1,1,.2,1.2.9,1.5,1.8h0c0,.1,0,.1,0,.1,0,0,.2.1.3.1.1,0,.3,0,.3-.2h0s0-.3,0-.3c0-.9-.2-2.2-.3-2.5h0c0,0,0,0,0,0-.2,0-1.5,0-2.8,0h-3.9c-.8,0-1.5,0-2.4,0h0s0,0,0,0c-.1,0-.1.2-.2.3,0,0,0,.2.1.3h.4c1.1.2,1.2.4,1.2,2.6v7.4c0,2.2-.1,2.4-1.2,2.5h-.7c0,0,0,0,0,0,0,0-.1.3,0,.4,0,.1,0,.2.2.3h0s0,0,0,0c1.2,0,1.9,0,2.8,0h1.9c1.8,0,3.7,0,5.5,0h0s0,0,0,0c.3-.6.8-2.2.9-2.9h0s0,0,0,0c0-.1-.1-.2-.3-.2h0ZM196.8,45.8h0c-.5,0-1-.2-1.4-.6-1.4-1.2-2.6-2.9-4.1-5.5-.1-.2-.2-.3-.1-.4.6-.3,2.6-1.2,2.6-3.5s-1-2.5-1.8-3c-1-.6-2.3-.6-3.5-.6-1.9,0-3.3,0-4.6.2h0c0,0-.2.2-.2.3,0,.1,0,.3.1.4h.7c.8.2.8.4.8,2.4v7.4c0,2.2,0,2.4-1.2,2.5h-.5c0,0,0,0,0,0,0,.1-.1.3,0,.4,0,.1,0,.2.1.2h0s0,0,0,0c1,0,1.8,0,2.6,0s1.6,0,2.4,0h0s0,0,0,0c0,0,.1-.1.2-.3,0-.2,0-.3,0-.4h0s-.5,0-.5,0c-1.1-.2-1.2-.4-1.2-2.5v-2.6c0-.4,0-.4.9-.4s1.1.2,1.4.6c.3.5.7,1,1,1.6.4.6.7,1.1,1,1.5,1.4,2,2.5,2.6,4.3,2.6s.7,0,.9-.1h0c0,0,.1-.2,0-.3,0,0,0-.2-.1-.2h0ZM187.3,33.6c0-.5,0-.6,1.3-.6,2.4,0,3.2,1.7,3.2,3.1s-.3,2-1,2.5c-.6.5-1.4.5-2.1.5-1,0-1.3,0-1.4,0,0,0,0-.3,0-.6v-4.8h0ZM206.3,38.5l-1.6-1c-.6-.4-1.7-1.2-1.7-2.5s.2-2.2,2.4-2.2,2.4,1.2,2.7,2.3h0c0,0,.2.1.3.1.1,0,.3,0,.4-.2h0c0-1-.2-2.1-.4-2.6h0c0,0,0,0,0,0-.1,0-.4,0-.7-.1-.5-.1-1.2-.3-1.9-.3-2.6,0-4.3,1.5-4.3,3.6s1.2,2.9,2.3,3.6l2,1.3c1.5.9,1.7,1.9,1.7,2.8s-.8,2.3-2.5,2.3-3.1-1.6-3.5-3h0c0,0-.1-.1-.2-.1,0,0,0,0,0,0-.1,0-.3,0-.4.2h0c0,1,.3,2.5.6,3h0s0,0,0,0c.4.2,1.5.8,3.3.8,2.7,0,4.5-1.6,4.5-3.9s-.9-2.9-2.6-4h0ZM218.3,33h.5s0,0,0,0c.1,0,.1-.2.1-.3,0-.1,0-.3-.2-.3h0s0,0,0,0c-1,0-1.7,0-2.6,0s-1.6,0-2.6,0h0s0,0,0,0c-.1,0-.1.2-.2.3,0,0,0,.2.1.3h0s.5,0,.5,0c1.1,0,1.2.4,1.2,2.6v7.3c0,2.2,0,2.4-1.2,2.5h-.5c0,0,0,0,0,0,0,0-.1.3,0,.4,0,.1,0,.2.2.3h0s0,0,0,0c1,0,1.7,0,2.6,0s1.5,0,2.6,0h0s0,0,0,0c.1,0,.2-.2.2-.3,0,0,0-.2-.1-.3h-.5c-1.2-.2-1.2-.5-1.2-2.6v-7.3c0-2.2,0-2.5,1.2-2.6h0ZM236,31.8h0s0,0,0,0c-.3.5-.4.5-1.5.5h-8.5c-1,0-1.5,0-1.6-.6h0s0,0,0,0c0,0-.4,0-.5,0h0s0,0,0,0c-.1.8-.4,2.1-.8,3.1h0s0,0,0,0c0,.1.2.2.3.2.1,0,.2,0,.3,0h0s0,0,0,0c.2-.5.4-.9.9-1.4.5-.4,1.5-.5,2.5-.5h1.1q.5,0,.5.6v9.2c0,2.2-.1,2.4-1.2,2.5h-.7c0,0,0,0,0,0,0,0-.2.2-.1.3,0,.1,0,.3.2.3h0s0,0,0,0c1.3,0,2,0,2.9,0s1.5,0,2.7,0h0s0,0,0,0c.1,0,.2-.2.2-.3,0,0,0-.2-.1-.3h-.7c-1.1-.2-1.2-.4-1.2-2.6v-9.2c0-.3,0-.4,0-.5,0,0,.2,0,.5,0h1.5c1.1,0,1.9.2,2.3.5.2.2.4.7.5,1.5h0s0,0,0,0c0,0,.2.1.4.1.1,0,.2,0,.3-.2h0s0,0,0,0c0-.6,0-2.3.3-3.1h0s0,0,0,0c0-.1-.4-.1-.5,0h0ZM251.6,43c-.1,0-.3,0-.4,0h0c-.5,1-1.1,1.8-1.4,2-.5.2-1.1.3-2.6.3s-2.2-.2-2.4-.4c-.3-.3-.4-1-.4-2.1v-2.9c0-.5,0-.5.6-.5h1.2c.8,0,1.3,0,1.6.1.4,0,.5.4.6.7l.2.8h0c0,.1.3.2.4.1.1,0,.2,0,.3-.1h0c0-.2,0-.5,0-.8,0-.4,0-.8,0-1.2s0-.9,0-1.3c0-.3,0-.6,0-.8h0s0,0,0,0c0,0-.2-.1-.3-.1-.1,0-.3,0-.4.1l-.2.9c-.1.5-.2.6-.4.7-.2,0-.8.1-1.7.1h-1.2q-.6,0-.6-.5v-4.1q0-.7.5-.7h1.5c.9,0,1.6,0,2,.1,1,.2,1.2.9,1.5,1.8h0c0,.1,0,.1,0,.1,0,0,.2.1.3.1.1,0,.3,0,.3-.2h0s0-.3,0-.3c0-.9-.2-2.2-.3-2.5h0c0,0,0,0,0,0-.2,0-1.5,0-2.8,0h-3.9c-.8,0-1.5,0-2.4,0h0s0,0,0,0c-.1,0-.1.2-.2.3,0,0,0,.2.1.3h.4c1.2.2,1.2.4,1.2,2.6v7.4c0,2.2-.1,2.4-1.2,2.5h-.7c0,0,0,0,0,0,0,0-.1.3,0,.4,0,.1,0,.2.2.3h0s0,0,0,0c1.2,0,1.9,0,2.8,0h1.9c1.8,0,3.7,0,5.5,0h0s0,0,0,0c.3-.6.8-2.2.9-2.9h0s0,0,0,0c0-.1-.1-.2-.3-.2h0ZM268.1,31.8h0s0,0,0,0c-.3.5-.4.5-1.5.5h-8.5c-1,0-1.5,0-1.6-.6h0s0,0,0,0c0,0-.4,0-.5,0h0s0,0,0,0c-.1.8-.4,2.1-.8,3.1h0s0,0,0,0c0,.1.2.2.3.2.1,0,.2,0,.3,0h0s0,0,0,0c.2-.5.4-.9.9-1.4.5-.4,1.5-.5,2.5-.5h1.1q.5,0,.5.6v9.2c0,2.2-.1,2.4-1.2,2.5h-.7c0,0,0,0,0,0,0,0-.2.2-.1.3,0,.1,0,.3.2.3h0s0,0,0,0c1.3,0,2,0,2.9,0s1.5,0,2.7,0h0s0,0,0,0c.1,0,.1-.2.2-.3,0,0,0-.2-.1-.3h-.7c-1.1-.2-1.2-.4-1.2-2.6v-9.2c0-.3,0-.4,0-.5,0,0,.2,0,.5,0h1.5c1.1,0,1.9.2,2.3.5.2.2.4.7.5,1.5h0s0,0,0,0c0,0,.3.1.4.1.1,0,.2,0,.3-.2h0s0,0,0,0c0-.6,0-2.3.3-3.1h0s0,0,0,0c0-.1-.4-.1-.5,0h0ZM283.7,43c-.1,0-.3,0-.4,0h0c-.5,1-1.1,1.8-1.4,2-.5.2-1.1.3-2.6.3s-2.2-.2-2.4-.4c-.3-.3-.4-1-.4-2.1v-2.9c0-.5,0-.5.6-.5h1.2c.8,0,1.3,0,1.6.1.4,0,.5.4.6.7l.2.8h0c0,.1.3.2.4.1.1,0,.2,0,.3-.1h0c0-.2,0-.5,0-.8,0-.4,0-.8,0-1.2s0-.9,0-1.3c0-.3,0-.6,0-.8h0s0,0,0,0c0,0-.2-.1-.3-.1-.1,0-.3,0-.4.1l-.2.9c-.1.5-.2.6-.4.7-.2,0-.8.1-1.7.1h-1.2q-.6,0-.6-.5v-4.1q0-.7.5-.7h1.5c.9,0,1.6,0,2,.1,1,.2,1.2.9,1.5,1.8h0c0,.1,0,.1,0,.1,0,0,.2.1.3.1.1,0,.3,0,.3-.2h0s0-.3,0-.3c0-.9-.2-2.2-.3-2.5h0c0,0,0,0,0,0-.2,0-1.5,0-2.8,0h-3.9c-.8,0-1.5,0-2.4,0h0s0,0,0,0c-.1,0-.1.2-.2.3,0,0,0,.2.1.3h.4c1.2.2,1.2.4,1.2,2.6v7.4c0,2.2-.1,2.4-1.2,2.5h-.7c0,0,0,0,0,0,0,0-.1.3,0,.4,0,.1,0,.2.2.3h0s0,0,0,0c1.2,0,1.9,0,2.8,0h1.9c1.8,0,3.7,0,5.5,0h0s0,0,0,0c.3-.6.8-2.2.9-2.9h0s0,0,0,0c0-.1-.1-.2-.3-.2h0ZM300.3,31.8h0s0,0,0,0c-.3.5-.4.5-1.5.5h-8.5c-1,0-1.5,0-1.6-.6h0s0,0,0,0c0,0-.4,0-.5,0h0s0,0,0,0c-.1.8-.4,2.1-.8,3.1h0s0,0,0,0c0,.1.2.2.3.2.1,0,.2,0,.3,0h0s0,0,0,0c.2-.5.4-.9.9-1.4.5-.4,1.5-.5,2.5-.5h1.1q.5,0,.5.6v9.2c0,2.2-.1,2.4-1.2,2.5h-.7c0,0,0,0,0,0,0,0-.2.2-.1.3,0,.1,0,.3.2.3h0s0,0,0,0c1.3,0,2,0,2.9,0s1.5,0,2.7,0h0s0,0,0,0c.1,0,.2-.2.2-.3,0,0,0-.2-.1-.3h-.7c-1.1-.2-1.2-.4-1.2-2.6v-9.2c0-.3,0-.4,0-.5,0,0,.2,0,.5,0h1.5c1.1,0,1.9.2,2.3.5.2.2.4.7.5,1.5h0s0,0,0,0c0,0,.3.1.4.1.1,0,.2,0,.3-.2h0s0,0,0,0c0-.6,0-2.3.3-3.1h0s0,0,0,0c0-.1-.3-.1-.5,0h0ZM316.6,33h.5s0,0,0,0c.1,0,.1-.2.1-.3,0-.1,0-.3-.2-.3h0s0,0,0,0c-1,0-1.7,0-2.6,0s-1.6,0-2.6,0h0s0,0,0,0c-.1,0-.1.2-.2.3,0,0,0,.2.1.3h0s.5,0,.5,0c1.1,0,1.2.4,1.2,2.6v7.3c0,2.2,0,2.4-1.2,2.5h-.5c0,0,0,0,0,0,0,0-.1.3,0,.4,0,.1,0,.2.2.3h0s0,0,0,0c1,0,1.7,0,2.6,0s1.5,0,2.6,0h0s0,0,0,0c.1,0,.1-.2.2-.3,0,0,0-.2-.1-.3h-.6c-1.1-.2-1.2-.5-1.2-2.6v-7.3c0-2.2,0-2.5,1.2-2.6h0ZM336.8,38.6c-.2,0-.3,0-.3-.2,1-.5,2.1-1.2,2.1-2.9s-.6-2.1-1.6-2.6c-1-.5-2.4-.6-3.5-.6-1.8,0-3.2,0-4.4.2h0c0,0-.2.2-.2.3,0,.1,0,.3.1.4h0s.7,0,.7,0c.9,0,.9.4.9,1.9v7.8c0,2.2,0,2.3-1.1,2.5h-.4c0,0,0,0,0,0,0,0-.1.3,0,.4,0,.1,0,.2.2.3h0s0,0,0,0c.2,0,.5,0,.7,0,.5,0,1,0,1.6,0s1,0,1.5,0c.4,0,.7,0,1,0,3.5,0,5.6-1.5,5.6-4.1s-1.8-3.3-2.8-3.5h0ZM334.4,45.4c-.8,0-1.3-.2-1.6-.5-.4-.4-.4-1.5-.4-2.2v-3c0-.3,0-.5,1.1-.5,3.5,0,4,2.2,4,3.4,0,2.4-2,2.8-3.2,2.8h0ZM332.5,38.3c0,0,0-.2,0-.4v-4.2c0-.4,0-.4.2-.5.2,0,.5-.1.9-.1.7,0,3,.2,3,2.7s-.9,2.5-3.2,2.6c-.5,0-.8,0-.9,0h0ZM354.7,43c-.1,0-.3,0-.4,0h0c-.5,1-1.1,1.8-1.4,2-.5.2-1.1.3-2.6.3s-2.2-.2-2.4-.4c-.3-.3-.4-1-.4-2.1v-2.9c0-.5,0-.5.6-.5h1.2c.8,0,1.3,0,1.6.1.4,0,.5.4.6.7l.2.8h0c0,.1.3.2.4.1.1,0,.2,0,.3-.1h0c0-.2,0-.5,0-.8,0-.4,0-.8,0-1.2s0-.9,0-1.3c0-.3,0-.6,0-.8h0s0,0,0,0c0,0-.2-.1-.3-.1-.1,0-.3,0-.4.1l-.2.9c-.1.5-.2.6-.4.7-.2,0-.8.1-1.7.1h-1.2q-.6,0-.6-.5v-4.1q0-.7.5-.7h1.5c.9,0,1.6,0,2,.1,1,.2,1.2.9,1.5,1.8h0c0,.1,0,.1,0,.1,0,0,.2.1.3.1.1,0,.3,0,.3-.2h0s0-.3,0-.3c0-.9-.2-2.2-.3-2.5h0c0,0,0,0,0,0-.2,0-1.5,0-2.8,0h-3.9c-.8,0-1.5,0-2.4,0h0s0,0,0,0c-.1,0-.1.2-.2.3,0,0,0,.2.1.3h.4c1.2.2,1.2.4,1.2,2.6v7.4c0,2.2-.1,2.4-1.2,2.5h-.7c0,0,0,0,0,0,0,0-.1.3,0,.4,0,.1,0,.2.2.3h0s0,0,0,0c1.2,0,1.9,0,2.8,0h1.9c1.8,0,3.7,0,5.5,0h0s0,0,0,0c.3-.6.8-2.2.9-2.9h0s0,0,0,0c0-.1-.1-.2-.3-.2h0ZM372.3,45.8h0c-.5,0-1-.2-1.4-.6-1.4-1.2-2.6-2.9-4.1-5.5-.1-.2-.2-.3-.1-.4.6-.3,2.6-1.2,2.6-3.5s-1-2.5-1.7-3c-1-.6-2.3-.6-3.5-.6-1.9,0-3.3,0-4.6.2h0c0,0-.2.2-.2.3,0,.1,0,.3.1.4h.7c.8.2.8.4.8,2.4v7.4c0,2.2,0,2.4-1.2,2.5h-.5c0,0,0,0,0,0,0,.1-.1.3,0,.4,0,.1,0,.2.1.2h0s0,0,0,0c1,0,1.8,0,2.6,0s1.6,0,2.4,0h0s0,0,0,0c0,0,.1-.1.2-.3,0-.2,0-.3,0-.4h0s-.5,0-.5,0c-1.1-.2-1.2-.4-1.2-2.5v-2.6c0-.4,0-.4.9-.4s1.1.2,1.4.6c.3.5.7,1,1,1.6.4.6.7,1.1,1,1.5,1.4,2,2.5,2.6,4.3,2.6s.7,0,.9-.1h0c0,0,.1-.2,0-.3,0,0,0-.2-.1-.2h0ZM362.7,33.6c0-.5,0-.6,1.3-.6,2.4,0,3.2,1.7,3.2,3.1s-.3,2-1,2.5c-.6.5-1.4.5-2.1.5-1,0-1.3,0-1.4,0,0,0,0-.3,0-.6v-4.8h0ZM388.5,40.4h0c-.7,0-1.4,0-2.2,0-1.3,0-2.4,0-2.9,0h0s0,0,0,0c-.1,0-.2.2-.2.3,0,.1,0,.3.2.3h.9c1.2.2,1.3.3,1.3,2v.8c0,.6,0,1-.2,1.1-.2.3-.9.6-2.2.6-3.8,0-6.1-2.7-6.1-7s3.1-5.9,5.7-5.9,3.6.9,4.1,2.9h0s0,0,0,0c.1.1.3.1.4,0,.1,0,.2,0,.2-.2h0s0,0,0,0c-.2-1.4-.3-2.4-.3-3h0c0,0,0,0,0,0-.2,0-.8,0-1.1-.2h-.1c-.2,0-1.4-.3-2.6-.3-2.9,0-5,.8-6.6,2.4-1.2,1.3-1.9,3-1.9,4.9s.7,3.5,1.9,4.7c1.5,1.5,3.7,2.3,6.3,2.3s2.8-.3,3.7-.5c.3,0,.7-.2,1-.2h0c0,0,0-.1,0-.2,0,0,0-.1,0-.2h0c-.3-.1-.4-.6-.4-1.4v-1.2c0-1.1,0-1.6.8-1.7h.4s0,0,0,0c0,0,.1-.2.1-.4,0-.1,0-.2-.2-.3h0ZM403.9,43c-.1,0-.3,0-.4,0h0c-.5,1-1.1,1.8-1.4,2-.5.2-1.1.3-2.6.3s-2.2-.2-2.4-.4c-.3-.3-.4-1-.4-2.1v-2.9c0-.5,0-.5.6-.5h1.2c.7,0,1.3,0,1.6.1.4,0,.5.4.6.7l.2.8h0c0,.1.3.2.4.1.1,0,.2,0,.3-.1h0c0-.2,0-.5,0-.8,0-.4,0-.8,0-1.2s0-.9,0-1.3c0-.3,0-.6,0-.8h0s0,0,0,0c0,0-.2-.1-.3-.1-.1,0-.3,0-.4.1l-.2.9c-.1.5-.2.6-.4.7-.2,0-.8.1-1.7.1h-1.2q-.6,0-.6-.5v-4.1q0-.7.5-.7h1.5c.9,0,1.6,0,2,.1,1,.2,1.2.9,1.5,1.8h0c0,.1,0,.1,0,.1,0,0,.2.1.3.1.1,0,.3,0,.3-.2h0s0-.3,0-.3c0-.9-.2-2.2-.3-2.5h0c0,0,0,0,0,0-.2,0-1.5,0-2.8,0h-3.9c-.8,0-1.5,0-2.4,0h0s0,0,0,0c-.1,0-.1.2-.2.3,0,0,0,.2.1.3h.4c1.2.2,1.2.4,1.2,2.6v7.4c0,2.2-.1,2.4-1.2,2.5h-.7c0,0,0,0,0,0,0,0-.1.3,0,.4,0,.1,0,.2.2.3h0s0,0,0,0c1.2,0,1.9,0,2.8,0h1.9c1.8,0,3.7,0,5.5,0h0s0,0,0,0c.3-.6.8-2.2.9-2.9h0s0,0,0,0c0-.1-.1-.2-.3-.2h0ZM423,32.3h0s0,0,0,0c-.7,0-1.2,0-2.1,0s-1.4,0-2.4,0h0s0,0,0,0c0,0-.2.1-.2.3,0,.1,0,.3.1.4h0s.4,0,.4,0c.7,0,1.1.2,1.2.4.3.4.4,1.9.4,4.2v4.4c0,.3,0,.6,0,.8-.8-.8-1.6-1.7-2.5-2.8-.3-.3-.5-.6-.8-.9l-2-2.2h0c-2-2.3-3.2-3.8-3.5-4.5h0c0,0,0,0,0,0-.2,0-.6,0-.9,0s-1.5,0-2.3,0h0s0,0,0,0c0,0-.1.1-.2.3,0,.1,0,.3.1.4h0s.4,0,.4,0c.6,0,1,.2,1.2.5.4.4.4.8.4,1.4v6.1c0,1.1,0,3.3-.3,4,0,.2-.4.3-.8.4h-.6c0,0,0,0,0,0,0,0-.1.2-.1.3,0,.1,0,.2.2.3h0s0,0,0,0c.7,0,1.3,0,2.1,0s1.4,0,2.4,0h0s0,0,0,0c0,0,.1-.1.1-.3,0-.1,0-.3,0-.4h0s-.7,0-.7,0c-.5,0-.9-.2-1-.4-.2-.4-.4-1.9-.4-4.2v-4.5c0-.4,0-.9,0-1.2.3.3.9,1.1,1.5,1.7.3.4.7.8.9,1l4.8,5.4c1.6,1.8,2.4,2.7,2.6,3.1h0s0,0,0,0c.2,0,.4-.1.5-.3h0s0,0,0,0c0-.2,0-1.1,0-3.6v-5.2c0-1.1,0-3.3.3-3.9,0-.1.4-.3,1.1-.4h.3s0,0,0,0c0,0,.1-.2.1-.4,0-.1,0-.2-.2-.3h0Z"/>
  </g>
  <g id="Emblem_negativ" data-name="Emblem negativ">
    <path class="cls-2" d="M20.4,42c-.7-.1-1.9-.3-2.2-.2-.1,0-.2.2-.3.5v.3c-.2,0-.3,0-.3,0,0-.4.2-.8.2-1.2,0-.4.1-.7.2-1.1,0,0,.2,0,.3,0v.3c0,.3,0,.5.1.6.3.2,1.5.4,2.1.5l1.2.2c.9.2,1.9.5,2.4,1.2.4.5.6,1.4.4,2.1-.1.7-.4,1.4-.9,1.9-.6.5-1.4.6-2.6.4l-2.5-.4c-1.1-.2-1.3-.2-1.4.4v.3c-.1,0-.3,0-.3,0,.1-.5.2-.9.3-1.3,0-.4.1-.8.2-1.3,0,0,.2,0,.3,0v.3c0,.6.1.7,1.2.9l2.3.4c1.7.3,2.9,0,3.2-1.7.3-1.5-.8-2.3-2.4-2.6l-1.2-.2ZM27,33.6c.3.2,1.4.8,1.6.9,0,0,0,.1,0,.2-.2,0-.7.1-2.1.4l-3.7.8c-.4,0-1.5.3-1.9.4h0c0,.1.3.2.6.4l2,1.1c.4.2,1.7.9,2,.9.1,0,.3-.2.4-.4l.2-.3c.1,0,.2,0,.2.1-.3.4-.4.7-.6,1.1-.2.4-.3.6-.5,1,0,0-.2,0-.2-.1v-.3c.2-.2.2-.4.2-.5-.3-.3-1.4-.9-1.9-1.2l-2.7-1.5c-.3-.1-.5-.2-.8-.2-.2,0-.4.2-.5.5h-.1c0,.2-.2,0-.2,0,.2-.4.5-.9.6-1,0-.1.2-.3.2-.4.6,0,2.4-.3,2.9-.5l1.5-.3c1.1-.2,1.9-.4,2.5-.6h0c0,0-.2-.2-.4-.3l-2-1.1c-.4-.2-1.7-.9-2-.9-.1,0-.3.1-.5.5h-.1c0,.2-.2,0-.2,0,.3-.4.4-.7.6-1.1.2-.4.3-.6.5-1,0,0,.2,0,.2.1h0c-.1.5-.1.7,0,.8.2.3,1.4,1,1.8,1.2l2.2,1.2ZM27.1,28.1c-.8-.8-1-.9-1.4-.5l-.2.2c0,0-.2-.1-.2-.2.4-.4.6-.6,1-.9.3-.3.5-.6.9-1,0,0,.2,0,.2.2l-.2.2c-.4.5-.3.6.5,1.4l2.7,2.7c.8.8.9.9,1.4.5l.2-.2c0,0,.2.1.2.2-.4.4-.6.6-.9.9-.3.3-.6.6-.9,1,0,0-.2,0-.2-.2l.2-.2c.4-.5.3-.6-.5-1.4l-2.7-2.7ZM30.7,24.1c-.5-.4-.8-.5-1.2-.3h-.2c0,0-.2,0-.1-.2.3-.1.6-.3,1-.6.4-.3.7-.5,1.1-.7,0,0,.2.1.2.2h-.1c-.3.4-.4.5-.3.5,0,0,.5.5,1.2,1,1.1.8,2.1,1.6,3.2,2.3,0-.8-.3-1.9-.4-2.5-.1-.8-.3-2.1-.4-2.5,0-.2-.1-.3-.1-.4s-.2,0-.5,0h-.2c0,0-.2,0-.1-.2.3-.1.6-.3,1-.6.3-.2.6-.4.9-.6,0,0,.2.1.2.2l-.3.2c-.2.2-.3.3-.3.6,0,.6.1,1.5.3,2.7l.2,1.4c.2,1.1.4,2.4.5,2.9,0,0,0,0,0,0,0,0,0,0-.2,0-.3-.3-.8-.7-1.2-.9l-4.1-2.9ZM39.1,20.1c-.3-1.1-.4-1.2-1-1.1h-.2c0,0-.1-.2,0-.2.4-.1.8-.2,1.2-.3l1.9-.6c.7-.2,1.3-.4,1.4-.4.1.2.4.9.6,1.3,0,0-.2.1-.2,0-.3-.4-.5-.8-1.1-.7-.2,0-.6.1-1,.2l-.7.2c-.3,0-.3.1-.2.5l.6,2c0,.3.1.3.4.2l.6-.2c.4-.1.7-.2.9-.3.1,0,.2-.2.1-.4v-.4c0,0,.2-.1.2,0,0,.2.2.7.3,1,.1.4.3.7.3,1,0,0-.2.1-.3,0l-.2-.4c0-.2-.2-.3-.4-.3-.2,0-.4,0-.8.2l-.6.2c-.3,0-.3.1-.3.4l.4,1.4c.2.5.3.9.5,1,.2,0,.4.1,1.3-.1.8-.2,1.1-.4,1.3-.5.2-.2.3-.6.4-1.2,0,0,.2,0,.3,0,0,.4,0,1.2,0,1.6-.9.3-1.8.5-2.7.8l-.9.3c-.4.1-.8.2-1.4.4,0,0-.1-.2,0-.2h.3c.6-.4.6-.5.3-1.6l-1.1-3.7ZM48,18.3c0-1,0-1.2-.4-1.3h-.3c0-.1,0-.3,0-.3.6,0,1.3,0,2.4,0,.7,0,1.3,0,1.8.3.5.3.9.8.9,1.5,0,1-.8,1.6-1.4,1.8,0,0,0,.2,0,.3.8,1.4,1.4,2.3,2.1,2.9.2.2.4.3.7.3,0,0,0,.1,0,.1,0,0-.3,0-.5,0-.9,0-1.4-.3-2.2-1.4-.3-.4-.7-1.1-1-1.6-.2-.2-.3-.3-.8-.4-.5,0-.5,0-.5.2v1.3c0,1.1,0,1.2.6,1.3h.2c0,0,0,.3,0,.3-.5,0-.8,0-1.3,0-.4,0-.8,0-1.3,0,0,0,0-.2,0-.3h.3c.6,0,.6-.2.7-1.3v-3.8ZM48.8,19.8c0,.2,0,.3,0,.4,0,0,.2,0,.7,0,.4,0,.8,0,1.1-.3.3-.2.5-.6.6-1.3,0-.8-.5-1.7-1.7-1.7-.7,0-.7,0-.7.3v2.5ZM57.2,25.1c-.9-.3-1.3-.7-1.5-.9,0-.3,0-1,.2-1.5,0,0,.2,0,.3,0,0,.6,0,1.7,1.3,2.1.9.3,1.4-.2,1.6-.8.1-.4.2-1-.4-1.7l-.8-.9c-.4-.5-.8-1.3-.5-2.1.3-1,1.3-1.5,2.6-1.1.3,0,.7.3.9.4.1,0,.3.1.3.2,0,.3,0,.9-.2,1.3,0,0-.2,0-.3,0,0-.5,0-1.3-1-1.6-1-.3-1.4.3-1.6.7-.2.6.2,1.2.5,1.5l.7.8c.5.6,1,1.4.7,2.4-.4,1.1-1.4,1.6-2.8,1.2ZM65.8,22.8c.6-1,.7-1.1.2-1.5l-.2-.2c0,0,0-.2.2-.2.4.3.7.5,1.1.7.4.2.7.4,1.1.7,0,0,0,.2-.1.2h-.2c-.6-.4-.7-.3-1.3.7l-2,3.2c-.6,1-.7,1.1-.2,1.5l.2.2c0,0,0,.2-.2.2-.4-.3-.7-.5-1.1-.7-.4-.2-.7-.4-1.2-.7,0,0,0-.2.1-.2h.2c.6.4.7.3,1.3-.7l2-3.2ZM70,31.2c-.8.8-.9.9-.5,1.4l.2.3c0,0-.1.2-.2.2-.4-.5-.6-.7-.9-1-.3-.3-.6-.6-1-1.1,0,0,0-.2.2-.2l.3.3c.5.4.6.3,1.4-.4l3.5-3.3c.2-.2.2-.2,0-.5l-.4-.4c-.3-.3-.7-.7-1.1-.8-.3,0-.6,0-.9.2-.1,0-.2-.2-.1-.3.5-.2,1.1-.6,1.4-.8,0,0,.1.1.1.1-.2.3,0,.5.4.9l2.9,3.2c.4.4.5.5.8.4,0,0,.1.1.1.2-.4.2-1.1.7-1.3,1,0,0-.2-.1-.2-.2.2-.2.4-.5.4-.7,0-.3-.2-.7-.6-1.1l-.5-.6c-.2-.2-.2-.2-.5,0l-3.5,3.2ZM75.6,38.1c.2-.2.2-.2,0-.5l-.7-1.4c-.1-.2-.2-.3-.4-.3l-1.2.2c-.5,0-.8.1-.9.2-.1,0-.1.1,0,.4v.3c.1,0,0,.2-.1,0-.1-.3-.2-.6-.5-1-.2-.3-.3-.7-.5-.9,0,0,.2-.2.2-.1l.2.3c.1.2.3.4.7.3.5,0,1.3,0,2.5-.2l3.1-.3c.4,0,.6,0,.8-.2.2.2.4.3.6.3,0,0,0,.1,0,.2-.4.3-.7.7-1.1,1l-3.2,3.2c-.7.7-.8.9-.6,1.3v.3c0,0,0,.1-.1.1-.2-.4-.3-.7-.5-1.2-.2-.5-.4-.8-.6-1.1,0,0,.2-.2.2-.1l.2.3c.1.2.2.3.3.3.1,0,.3-.2.4-.4l1.1-1.1ZM75.6,35.8c-.3,0-.3,0-.1.3l.6,1.2c.1.3.2.3.4,0l1.3-1.3c.2-.2.4-.4.5-.5h0c0,0-.3,0-.7,0l-2,.2ZM75.1,45.6c-.1-.9,0-1.5.2-1.7.2-.2.9-.4,1.4-.5,0,0,.1.2,0,.2-.5.2-1.5.8-1.3,2,.1.9.8,1.2,1.4,1.1.5,0,1-.2,1.4-1.1l.5-1.1c.3-.6.8-1.3,1.6-1.4,1-.1,1.9.5,2.1,1.9,0,.3,0,.7,0,1,0,.1,0,.3,0,.4-.2.1-.8.3-1.3.4,0,0-.1-.2,0-.3.5-.2,1.1-.6,1-1.6-.2-1-.9-1.2-1.4-1.1-.6,0-1,.7-1.2,1.1l-.4.9c-.3.7-.8,1.5-1.8,1.6-1.2.2-2.1-.6-2.3-2ZM23.5,57.2c.7-.3.9-.4.8-.8v-.3c0-.1,0-.1.2,0,.2.5.5,1.2.9,2.1.2.6.4,1.2.3,1.8,0,.5-.3,1-1,1.2-.7.3-1.2,0-1.7-.5-.1,0-.1.1,0,.2,0,.6-.1,1.6-1.2,2-1.2.4-2.3-.1-2.9-1.9-.1-.3-.3-.8-.4-1.2-.2-.4-.3-.8-.5-1.1,0,0,.2-.1.2-.1v.2c.4.5.5.5,1.5,0l3.8-1.4ZM20.2,59.4c-.4.1-.9.3-1,.6-.2.3-.1.6,0,.9.3.9,1,1.4,2,1.1.8-.3,1.6-1,1-2.6-.2-.5-.3-.6-.5-.5l-1.5.5ZM22.5,58.5c-.3.1-.3.1,0,.6.4,1,.9,1.4,1.9,1.1,1-.4,1.1-1.2.8-2,0-.2-.2-.4-.2-.4,0,0-.1-.1-.3,0l-2,.7ZM26.7,64.6c.9-.7,1-.8.7-1.3h0c0-.2.2-.3.2-.3.3.4.5.7.7,1l1.2,1.6c.4.5.8,1,.9,1.1-.1.2-.7.7-1,1,0,0-.2-.1-.2-.2.3-.4.5-.7.3-1.3,0-.2-.3-.5-.6-.9l-.5-.6c-.2-.3-.2-.2-.5,0l-1.7,1.3c-.2.2-.2.2,0,.5l.4.5c.3.4.5.6.6.7.1,0,.2,0,.5,0l.4-.2c0,0,.2.1.2.2-.2.2-.6.4-.9.6-.3.2-.6.5-.8.6,0,0-.2-.1-.2-.2l.3-.3c.1-.1.2-.3.1-.5,0-.1-.2-.4-.5-.7l-.4-.5c-.2-.3-.2-.3-.4-.1l-1.2.9c-.5.3-.7.6-.8.8,0,.2,0,.4.6,1.2.5.7.7.9.9,1,.2,0,.7,0,1.3,0,0,0,.2.2.1.3-.3.2-1.2.4-1.5.5-.6-.8-1.1-1.5-1.7-2.3l-.6-.8c-.3-.4-.5-.7-.9-1.1,0,0,.1-.2.2-.2l.2.3c.4.5.6.4,1.5-.3l3.1-2.3ZM32.1,70.7c.6-.8.7-1,.3-1.3l-.3-.2c0,0,0-.2.2-.2.5.3,1.1.7,2,1.3.5.4,1,.8,1.3,1.3.3.5.3,1.1-.1,1.7-.6.8-1.6.8-2.1.7,0,0,0,.1-.1.2-.1,1.6-.1,2.6,0,3.6,0,.2.2.5.4.7,0,0,0,.1,0,.1,0,0-.2-.1-.4-.2-.7-.5-1-1.1-1-2.4,0-.5,0-1.3,0-1.9,0-.3,0-.5-.4-.7-.4-.3-.4-.3-.5-.1l-.8,1.1c-.7.9-.7,1-.3,1.5l.2.2c0,0-.1.2-.2.2-.4-.3-.7-.5-1-.8-.4-.3-.7-.5-1.1-.7,0,0,0-.2.1-.2h.2c.5.4.6.3,1.3-.6l2.2-3.1ZM31.9,72.5c-.1.2-.2.3-.2.3,0,0,.1.2.6.5.3.2.7.4,1.1.4.4,0,.8-.2,1.2-.8.5-.7.5-1.6-.4-2.3-.5-.4-.6-.4-.8-.1l-1.5,2ZM43,80.8c-.1.4-.1.7,0,.8,0,0,0,.1,0,.1-.1,0-.3,0-.5,0-.6,0-1.4-.1-1.9-.3-1.2-.4-2.2-1.1-2.7-2.1-.4-.8-.5-1.7-.2-2.6.3-.9.8-1.7,1.7-2.1.9-.5,2.1-.7,3.6-.2.6.2,1.1.5,1.2.6.2.1.5.3.6.3-.1.3-.2.9-.3,1.5,0,0-.2,0-.3,0,0-1.2-.6-1.8-1.6-2.1-2-.6-3.3.5-3.8,2-.6,2,0,3.8,2,4.4.6.2,1,.2,1.2,0,0,0,.2-.2.3-.5v-.4c.4-.9.4-.9-.2-1.2l-.4-.2c0,0,0-.2,0-.3.3.1.8.3,1.4.5.4.1.7.2,1.1.3,0,0,0,.2,0,.3h-.2c-.4-.1-.5.2-.7.7l-.2.6ZM48.3,77c0-1.1,0-1.3-.7-1.3h-.2c0,0,0-.3,0-.3.5,0,.8,0,1.3,0h2c.7,0,1.3,0,1.4,0,0,.2.1.9.2,1.4,0,0-.2,0-.3,0-.2-.5-.3-.9-.8-1-.2,0-.6,0-1,0h-.8c-.3,0-.3,0-.3.4v2.1c0,.3,0,.3.4.3h.6c.4,0,.8,0,.9,0,.1,0,.2-.1.2-.4v-.4c.1,0,.3,0,.4,0,0,.3,0,.7,0,1.1,0,.4,0,.8,0,1,0,0-.2,0-.3,0v-.4c-.1-.2-.2-.3-.4-.4-.2,0-.4,0-.8,0h-.6c-.3,0-.4,0-.3.3v1.5c0,.6,0,.9.2,1.1.1.1.4.2,1.3.2.8,0,1.1,0,1.4-.2.2-.1.5-.5.7-1,0,0,.2,0,.3,0,0,.4-.3,1.2-.5,1.5-1,0-1.9,0-2.9,0h-1c-.5,0-.8,0-1.4,0,0,0,0-.2,0-.3h.4c.6-.1.7-.3.6-1.4v-3.8ZM64,77.3c.1.3.6,1.5.7,1.7,0,0,0,.1-.1.2-.2-.1-.6-.4-1.9-1l-3.3-1.7c-.4-.2-1.4-.7-1.7-.9h0c0,.1,0,.4.2.7l.9,2.2c.2.5.7,1.7,1,2,.1,0,.3,0,.6,0h.3c0,0,.1,0,0,.2-.5.2-.8.3-1.2.4-.4.2-.7.3-1,.4,0,0-.2-.2-.1-.2h.3c.2-.3.3-.4.4-.5,0-.4-.5-1.6-.7-2.1l-1.1-2.9c-.1-.3-.2-.5-.5-.6-.2,0-.5,0-.7,0h-.2c0,0-.1-.1,0-.2.4-.1,1-.3,1.1-.4.2,0,.3-.1.4-.2.4.4,2.1,1.3,2.6,1.5l1.4.7c1,.5,1.7.8,2.4,1.1h0c0,0,0-.2-.1-.4l-.9-2.1c-.2-.5-.7-1.7-1-2,0,0-.3,0-.7,0h-.2c0,0-.1-.1,0-.2.5-.2.8-.3,1.2-.4.4-.2.7-.3,1-.4,0,0,.2.2.1.2h-.1c-.3.3-.5.4-.5.5,0,.4.5,1.6.7,2.1l.9,2.4ZM71.5,74.4c-.7.6-1.3.8-1.5.8-.3,0-.9-.6-1.2-.9,0,0,0-.2.2-.2.5.3,1.5.8,2.4,0,.7-.6.6-1.3.2-1.8-.3-.4-.7-.7-1.6-.5l-1.2.2c-.6,0-1.5,0-2.1-.6-.7-.8-.6-1.9.4-2.8.2-.2.6-.4.8-.6.1,0,.3-.1.3-.2.2.1.7.5,1,.8,0,0,0,.2-.2.2-.4-.3-1.1-.6-1.9,0-.8.7-.5,1.4-.2,1.7.4.5,1.1.5,1.5.4l1-.2c.8-.1,1.7-.1,2.4.6.8.9.6,2.1-.4,3ZM72.4,65c-.9-.6-1.1-.7-1.5-.2l-.2.2c0,0-.2,0-.2-.2.3-.4.5-.7.8-1.1.2-.4.4-.7.7-1.1,0,0,.2,0,.2.1v.2c-.4.6-.3.7.7,1.3l3.2,2.1c.9.6,1.1.7,1.5.2l.2-.2c0,0,.2,0,.2.2-.3.4-.5.7-.8,1.1-.2.4-.4.7-.7,1.1,0,0-.2,0-.2-.1v-.2c.4-.6.3-.7-.7-1.3l-3.2-2.1ZM81.1,60c-.3.9-.7,1.3-.9,1.5-.3,0-1,0-1.5-.2,0,0,0-.2,0-.3.6,0,1.7,0,2.1-1.3.3-.9-.1-1.4-.8-1.6-.4-.1-1-.2-1.7.4l-.9.8c-.5.4-1.3.8-2.1.5-1-.3-1.5-1.3-1.1-2.6.1-.3.3-.7.4-.9,0-.1.2-.3.2-.3.3,0,.9,0,1.3.2,0,0,0,.2,0,.3-.5,0-1.3,0-1.6,1-.3,1,.3,1.4.7,1.6.6.2,1.2-.2,1.5-.5l.8-.6c.6-.5,1.4-.9,2.4-.6,1.1.4,1.6,1.5,1.2,2.8ZM44.5,33.8c-.3.9,0,1.9,1,2.2s1.8-.2,2.1-1c.3-.9,0-1.9-.9-2.2-.9-.3-1.8.2-2.1,1.1ZM45.3,33.6c-.2.5,0,1,.4,1.2.5.2,1,0,1.2-.5,0-.2.2,0,0,.4-.3.6-.9.8-1.4.6-.6-.2-.7-.9-.5-1.5.1-.2.3-.3.3-.2ZM55.8,41.4c.7-.3-.1-1.7-.3-1.8,0,0-.2-.2-.3,0,0,0,.3.8,0,.9-.2,0-.7-.8-.7-.8,0,0-.2,0-.2.3,0,.4.7,1.8,1.4,1.5ZM54.6,45.4c.5-.4.3-1.1,0-1.3-.5-.3-.8-.7-1-.9-.1-.2-.3-.1-.3-.1,0,0,0,.2.1.6.1.4.6.8.3.8-.2,0-.4-.2-.7-.5-.3-.3-.7-.8-.7-.8,0,0,0,0,0,.2,0,.2.2,1.2.8,1.8s1.2.7,1.5.4ZM55,48.3c.4-.2.3-.9,0-1.4-.2-.3-.4-.6-.6-.7-.1,0-.1.3-.1.5,0,.5.4.8.2.9-.2,0-.4-.3-.6-.5-.1-.2-.3-.6-.3-.6,0,0-.3.1-.2.6.1.6.7,1.6,1.5,1.3ZM48.7,32.3c-.2,0-.5-.2-.8,0-.2,0-.6.2-.6.4,0,.2.5,0,.8,0,.2,0,.3,0,.5,0,.2,0,0-.2,0-.2ZM48.3,33.3c.3.2.6-.2.9-.5,0,0,0-.1,0-.2-.1,0-.4.1-.6.2-.4.2-.4.4-.3.5ZM49.7,45.6h0c.9,0,1.2-.7,1.4-1.4.3-1.1,0-2.7-.2-3-.1-.2-.3,0-.3,0,0,0,.2,1.1,0,1.8-.1.5-.3.6-.4.3-.1-.6,0-1.1,0-1.4,0-.2-.1-.5-.2-.4-.2.4-.4,1.5-.2,2.3,0,.1,0,.2,0,.3,0,.1,0,.2,0,.3-.1.1-.4-.2-.5-.5-.2-.7,0-1.4,0-1.8,0-.1-.2,0-.2,0,0,.3,0,.6-.2.6-.1,0-.2-.2-.3-.6,0-.6,0-1.1,0-1.1,0,0-.2-.1-.3,0-.1.2-.4,1.9-.2,3,.2.7.5,1.4,1.4,1.4ZM52.7,42c.2-.1.5-.4.2-1-.1-.4-.4-.7-.6-.8-.1,0-.2,0-.2,0,0,0,.4.9.2,1-.5.2-1-1.1-1-1.1,0,0-.2,0-.2.2.1,1.4,1.1,2,1.5,1.8ZM51.4,30.4c-.3-.2-.8,0-.8.3,0,.2,0,.3.2.2.1-.3.7,0,.5.3,0,0,.1.2.3,0,.2-.2.3-.6,0-.9ZM52.8,32.7c-.9.3-1.2,1.3-.9,2.2.3.9,1.2,1.3,2.1,1,.9-.3,1.3-1.3,1-2.2-.3-.9-1.3-1.4-2.1-1.1ZM54,35.4c-.6.2-1.2,0-1.4-.6-.2-.4,0-.6,0-.4.2.5.7.7,1.2.5.5-.2.6-.8.4-1.2,0-.1.2,0,.3.2.3.6,0,1.3-.5,1.5ZM47.2,31.5c-.4,0-.7.2-1.2.2-.2,0,0,.3,0,.3,0,0,.3.2.9,0,.5-.2.6-.2,1-.1.2,0,.2-.1.1-.2-.1,0-.5-.2-.8-.2ZM46.4,30.8c-.3,0-1.4.2-1.1.6,0,0,.3.1.7,0,.8-.3,1.3-.1,1.4-.1,0,0,.1,0,0-.1,0,0-.3-.4-1-.3ZM49.7,29c-.4,0-.8.4-.9.7,0,0,.2.2.3,0,.1,0,.3-.2.5-.2s.4.1.5.2c.2.1.2,0,.3,0,0-.3-.4-.7-.9-.7ZM48.1,30.4c-.4.3-.3.7,0,.9.1.1.3,0,.3,0-.2-.4.3-.6.5-.3,0,0,.2,0,.2-.2,0-.3-.5-.5-.8-.3ZM53.1,30.8c-.7,0-.9.2-1,.3,0,0,0,.1,0,.1,0,0,.6-.2,1.4.1.4.1.6,0,.7,0,.2-.4-.9-.6-1.1-.6ZM51.6,31.9c.3,0,.4,0,1,.1.6.2.9,0,.9,0,0,0,.2-.3,0-.3-.5,0-.8-.2-1.2-.2-.4,0-.7,0-.8.2-.1,0,0,.2.1.2ZM49.7,29.9c-.4,0-.6.4-.6.6,0,.3.1.4.2.4,0,0,.1,0,.1,0,0,0,0-.5.3-.5s.3.4.3.5c0,0,0,.1.1,0,0,0,.1-.1.2-.4,0-.3-.2-.6-.6-.6ZM54,41.8c-.2-.5-.3-.9-.3-1.1s-.1-.2-.2,0c0,.1,0,1.1.3,1.8.4.7.8.8,1.1.6.3-.2,0-.8-.2-1-.1-.2-.2-.5-.2-.5,0,0-.3-.4-.3-.3,0,0,0,.3,0,.5,0,.3.1.4.1.4,0,0-.1,0-.4-.4ZM46.4,53.4c.3-.3.4-.8.4-.8,0-.2,0-.2,0-.3,0,0-.6,1-.8.8-.2-.2.5-1.2.5-1.2,0,0,0,0-.2,0,0,0-.5.3-.8.7-.3.4-.4.9-.1,1.2.3.3.7,0,1-.3ZM47.2,48.9s0,0,0,0c-.2,0-.4.5-.6.6-.2.1-.4.6-.5.6,0,0-.2,0-.2,0,0,0,.2-.4.3-.6.1-.2.3-1,.3-1,0,0-.1,0-.1,0,0,0-.3.3-.8.8-.9.9-1.1,1.6-.5,2,.3.2.9,0,1.5-.5.6-.7.7-1.7.6-1.9ZM45.5,56.9c0,.4.1.7.3.7s.3-.3.3-.7-.3-2.2-.3-2.2h0c0,.3-.2,1.7-.2,2.2ZM42.9,41.3c0,.1-.2.5-.5,1-.5.6-1.7,1.1-1.7,1.1,0,0,0,.6,0,.7,0,.2.3.1.3.1,0,0,.8-.3,1.3-.7.8-.7.8-2.2.8-2.3,0-.2-.1,0-.2.1ZM42.8,37.8c.1.3.4.3.6.5.2.2.3.2.4,0,0-.2.3-.7.5-.9.2-.2.4-.1.2,0-.1.2-.7,1.2-.3,1.4.3.2.4.2.5.2.2,0,.3,0,.3-.2,0-.2.2-.3.3-.3,0,0,0,.3,0,.4,0,.2.1.3.3.3.3,0,.6,0,.7,0,.2,0,0-.8.1-1.2,0-.2,0-.3.2-.2,0,.6.6,1.2.6,1.2,0,0,.3,0,.6-.3.2-.2,0-.5,0-.5,0,0-.2,0-.4-.2-.2-.2-.4-.5-.3-.8.1-.3.2.2.4.4.3.1.3,0,.2-.2-.1-.2-.4-.7-.3-.8.2-.1.1,0,.3.1.1,0,0-.7,0-.7,0,0-.2-.2-.4,0-.2.2-.4.4-.8.5-.1,0,0,.6-.1.6-.1,0-.2-.4-.4-.4-.2,0-.3,1.5-.5,1.4-.2,0,0-1.5,0-1.5,0,0-.2-.1-.4-.2-.2,0-.4-.1-.4-.1,0,0-.2,0-.5.4-.2.3-.3.5-.4.5-.1,0,0-.5.4-.9.2-.2.1-.2.1-.2,0,0-.2-.3-.4-.2-.2,0-.6.4-.8.6-.2.3-.3.2-.3,0,0-.3,0-.3.3-.6.3-.2.4-.3.5-.4,0,0,0-.7-.2-1,0,0,0-.1-.6-.2-.4,0-.8,0-.8-.1,0-.1.5-.4,1.5-.2.1,0,.2,0,.2-.2,0-.2.1-.5.2-.7,0-.1,0-.2-.1-.3-.3-.2-.4-.4-.5-.5,0-.1,0-.5.2-.3s.4.4.7.5c.2,0,.6-.1.5-.3,0,0-.3-.3-.5-.7-.2-.3-.2-.5-.3-.7-.1-.1-.9-.3-1-.3-.2,0-.5.2-.5.3,0,.2-.2.3-.1.5.1.2.5.3.5.5,0,0,0,.4-.1.4,0,0-.3-.1-.4-.2-.1,0-.3-.3-.4-.1-.1.2-.2.5,0,.6.6.3.5.3.5.4s0,.2-.2.2c-.2,0-.5-.2-.6-.1-.1,0-.2.5-.2,1.1,0,.6,0,1.3.4,1.3.2,0,.4,0,.6,0,.2,0,.2.3,0,.4-.2,0-.6.1-.6.4,0,.2,0,.9.3,1.3,0,.1.2,0,.2,0,0,0,.1-.2.2-.2s.1,0,0,.2c0,.2-.2.3,0,.6ZM44.9,57.6c0-.1-1.7-9.1-1.3-15,0,0-.2,0-.2,0-.6,1.4-1.2,2-1.1,2.5,0,1.2.9,10.2,2.2,13.3,0,.1.5-.4.4-.8ZM57.4,40.6c-.5-.6-.8-1.5-.9-1.6,0-.1-.3-.2-.2,0,0,.2.6,1.9,1,2.4.4.5,1.4,1.1,1.5,1.1.3-.2.4-.6.3-.7,0,0-1.2-.6-1.7-1.2ZM54,52.6c-.3-.4-.7-.6-.8-.7-.2-.1-.2,0-.2,0,0,0,.7,1.1.5,1.2-.2.2-.8-.8-.8-.8,0,0,0,.1,0,.3,0,0,.2.5.4.8.3.4.7.6,1,.3.3-.3.2-.8-.1-1.2ZM53.7,54.7s-.3,1.8-.3,2.2.1.7.3.7.3-.3.3-.7-.2-1.9-.2-2.2h0ZM49.5,33.6c.2,0,0-.5.3-.5s0,.4.3.5c.1,0,.2,0,.2-.2,0,0-.1-.7-.5-.7s-.5.7-.5.7c0,.1,0,.2.2.2ZM53.9,49.4c-.5-.5-.8-.8-.8-.8,0,0,0,0-.1,0,0,0,.2.8.3,1,.1.2.3.5.3.6,0,0-.1.1-.2,0,0,0-.3-.5-.5-.6-.1-.1-.4-.6-.6-.6,0,0,0,0,0,0-.1.2,0,1.2.6,1.9.6.6,1.1.8,1.5.5.6-.4.4-1-.5-2ZM50.2,32.6c0,0,0,.1,0,.2.2.3.6.7.9.5.1,0,0-.3-.3-.5-.1,0-.4-.3-.6-.2ZM51.3,32.6c.3,0,.7.3.8,0,0-.2-.3-.4-.6-.4-.3,0-.6,0-.8,0,0,0-.2.2,0,.2.2,0,.3,0,.5,0ZM48.7,37.6c.1.5.5,1.6,1.1,2,.6-.4,1-1.5,1.1-2,.1-.6.3-1.9,0-2.2-.4-.3-.7-.3-.7-.3,0,.3,0,.9,0,2s-.2,1.2-.2,1.2-.2-.5-.2-1.2c0-1,0-1.6,0-2,0,0-.4,0-.7.3-.4.3-.2,1.6,0,2.2ZM48.3,40.2c0-.2-.2-.2-.2-.2,0,0-.5,1.3-1,1.1-.2,0,.2-1,.2-1,0,0,0,0-.2,0-.2.1-.5.4-.6.8-.2.6,0,.9.2,1,.4.2,1.4-.4,1.5-1.8ZM44.5,48.3c.8.3,1.4-.6,1.5-1.3.1-.5-.2-.6-.2-.6,0,0-.2.4-.3.6-.2.3-.4.6-.6.5-.2,0,.1-.4.2-.9,0-.2,0-.5-.1-.5-.2.1-.4.4-.6.7-.2.5-.3,1.2,0,1.4ZM45.2,41.2c0,0-.3.3-.3.3,0,0,0,.3-.2.5-.1.2-.5.8-.2,1,.3.2.7,0,1.1-.6.4-.7.4-1.7.3-1.8,0-.1-.1,0-.2,0,0,.1-.1.5-.3,1.1s-.4.4-.4.4c0,0,0-.1.1-.4s0-.5,0-.5ZM44,39.6c-.2.1-1,1.5-.3,1.8.7.3,1.3-1.1,1.4-1.5,0-.3-.2-.3-.2-.3,0,0-.5.9-.7.8-.2,0,0-.9,0-.9,0-.1-.2,0-.3,0ZM47.1,43.2c0-.2,0-.2,0-.2,0,0-.4.5-.7.8-.3.3-.5.5-.7.5-.2,0,.2-.4.3-.8.1-.4.1-.6.1-.6,0,0-.1,0-.3.1-.1.2-.5.5-1,.9-.4.3-.5,1,0,1.3.3.2.9.2,1.5-.4s.8-1.6.8-1.8ZM57,31.2c0-.2,0-.3-.1-.5,0,0-.4-.2-.5-.3-.1,0-.9.2-1,.3-.1.1-.2.3-.3.7-.2.3-.4.6-.5.7-.1.2.4.4.5.3.3-.1.5-.3.7-.5.2-.2.3.1.2.3,0,.1-.2.3-.5.5-.2.2-.2.2-.1.3,0,.2.2.5.2.7,0,.2.1.2.2.2,1-.2,1.5,0,1.5.2,0,.2-.4,0-.8.1-.6,0-.5.1-.6.2-.3.3-.3.9-.2,1,0,.1.2.2.5.4.3.2.3.3.3.6,0,.3-.2.3-.3,0-.1-.2-.6-.6-.8-.6-.2,0-.4.2-.4.2,0,0,0,0,.1.2.4.4.5.9.4.9,0,0-.1-.1-.4-.5-.3-.4-.5-.4-.5-.4,0,0-.2,0-.4.1-.2,0-.4.2-.4.2,0,0,.2,1.5,0,1.5-.2,0-.3-1.4-.5-1.4s-.3.4-.4.4c-.1,0,0-.6-.1-.6-.4-.1-.6-.3-.8-.5-.2-.2-.4,0-.4,0,0,0,0,.7,0,.7.1,0,0-.2.3-.1.2.1-.2.7-.3.8-.1.2-.1.3.2.2.3-.1.3-.6.4-.4.1.3,0,.7-.3.8-.2.2-.4.2-.4.2,0,0-.1.3,0,.5.3.2.6.3.6.3,0,0,.5-.6.6-1.2.1,0,.2,0,.2.2,0,.4,0,1.1.1,1.2.1,0,.5,0,.7,0,.2,0,.3-.1.3-.3s0-.4,0-.4c.1,0,.2.1.3.3,0,.2.1.2.3.2.1,0,.3,0,.5-.2.3-.2-.2-1.2-.3-1.4s0-.3.2,0c.2.2.5.7.5.9,0,.2.2.2.4,0,.2-.2.5-.2.6-.5.1-.3,0-.4,0-.6,0-.2,0-.2,0-.2s.2.2.2.2c0,0,.1,0,.2,0,.3-.4.3-1.1.3-1.3,0-.2-.4-.3-.6-.4-.2,0-.2-.4,0-.4s.3,0,.6,0c.3,0,.3-.7.4-1.3,0-.6,0-1-.2-1.1,0,0-.4.1-.6.1-.1,0-.2-.2-.2-.2,0-.1,0,0,.5-.4.2-.1.1-.4,0-.6,0-.1-.3,0-.4.1-.1,0-.3.2-.4.2,0,0-.1-.3-.1-.4,0-.1.4-.2.5-.5ZM47.7,53.5c1,.4,1.6-1.1,1.6-1.6,0-.5-.3-.5-.3-.5,0,0-.5,1.2-.8,1.1-.2,0,.4-.7.4-1.3,0-.1-.2,0-.2,0,0,0-.2.2-.4.4-.3.3-1.2,1.8-.3,2.1ZM47.4,57c-.3-.3-.5-.5-.5-.8,0-.3-.2,0-.2,0,0,0-.2,1.1.3,1.6.5.5.5.3,1.2.8.6.5.6,1,.8,1,0,0,.1-.7-.2-1.3-.4-.6-1.1-1-1.4-1.3ZM44.2,61c0-.3,0-.3,0-.6,0,0-.3,0-.3-.2,0-.2.3-.2.3-.2,0-.4.1-.6.2-.9-.5,0-.9.1-1.1.5-.2.4-.2,1.1,0,1.6.3-.4.8-.3.8-.3ZM50.7,55c0-.4,0-.8-.2-1.2-.2-.4-.5-.6-.5-.6,0,0-.1.2-.1.5,0,.2.3.4.4.8,0,.3,0,.7-.4.8,0,0-.1,0-.2,0,0-.1.3-.2.2-.8-.2,0-.1.6-.4.6,0,0-.2,0-.2-.2,0-.1.3-.6.3-1.1,0-.3,0-.5,0-.5,0,0-.3.3-.5.7-.2.4-.3.8-.2,1.1,0,.5.5.8,1,.8s.9-.4,1-.8ZM47.4,58.9c-.1,0-.4,0-.4,0,0,0-.3.2-.3.8,0,.6,0,.8,0,.8,0,0,.2-.2.5-.2.4,0,.4.3.2.4-.3,0-.5.2-.6.4,0,.4.1,1,.1,1,.4-.5,1-.5,1.4,0,.3-1.1,0-1.5-.5-2.2-.4-.7-.4-.6-.5-.7ZM44.3,62.5c-.2-.4,0-1,0-1,0,0-.5,0-.6.3,0,.4.2.9.4,1.1.3.2.6.2.7.2h0s-.3-.2-.5-.6ZM48,62.1c-.4-.2-.6.2-.6.4,0,.9-.2,1.2-.2,1.2h0c.4,0,.9-.5,1-.8.1-.2,0-.6-.2-.7ZM51.4,57.1c.7-.5.9-1.1,1-1.8,0-.7-.2-.9-.2-.9h0s0,.5-.4,1.3c-.4.6-.9.8-1,.9-.2.1-.4.3-.4.7,0,.5,0,.6,0,.8,0,.1,0,0,0,0,0,0,.2-.4,1.1-1ZM46.1,62.8c0-.5.2-.8.2-.8,0,0-.2-.3-.6-.2-.4.1-.4.5-.4.6,0,.8.9,1.2,1.1,1.2h0c0,0-.3-.3-.3-.8ZM46,60.6c-.2,0-.4-.1-.4-.3,0-.2.5-.1.5-.1,0,0-.1-.7.2-1.5-.2-.1-.5-.2-.9,0-.6.4-.8,2.2-.6,3.1.5-.7,1.3-.5,1.6-.2,0-.6-.2-.8-.2-.8,0,0,0-.2-.3-.2ZM48.9,56.7c-.2-.1-.7-.4-1-.9-.5-.8-.4-1.3-.4-1.3h0s-.3.2-.2.8c0,.7.2,1.3,1,1.8.8.6,1.1,1,1.1,1,0,0,0,.1,0,0,0-.1,0-.3,0-.8,0-.5-.2-.6-.4-.7ZM55,59.1c.1.3.2.5.2.9,0,0,.3,0,.3.2,0,.2-.2.2-.3.2,0,.2,0,.3,0,.6,0,0,.5-.1.8.3.2-.5.1-1.2,0-1.6-.2-.4-.5-.5-1.1-.5ZM55.2,61.5s0,.6,0,1c-.1.3-.4.5-.5.5h0c.1,0,.4,0,.7-.2.3-.2.5-.7.4-1.1,0-.3-.6-.3-.6-.3ZM58,45.9c-.1,0,0,0,0,0,0,.7-.7,7.9-2.3,12.7.1,0,.3,0,.4,0,1.7-3.5,2.8-11.7,2.6-11.9-.2-.2-.5-.7-.6-.7ZM59.2,45.5c-.2-.1-.5-.4-.6-.5-.1-.1-.2-.2-.2-.2,0,0-.2,0-.3,0,0,0,0,0,0,0,0,0,.2.4.5.9.3.4.5.6.5.6,0,0,.2,0,.3-.2.1-.2,0-.4-.2-.5ZM52.1,62.5c0-.2-.2-.6-.6-.4-.3.1-.3.5-.2.7.1.3.6.7,1,.8h0s-.3-.3-.2-1.2ZM52.6,56.2c0,.3-.3.5-.5.8-.3.3-1,.7-1.4,1.3s-.2,1.3-.2,1.3c.2,0,.2-.5.8-1,.7-.5.7-.3,1.2-.8.5-.5.3-1.5.3-1.6,0,0-.2-.3-.2,0ZM48.6,45.6c0-.2-.2-.3-.2-.3,0,0-.1.7-.3,1.1-.2.4-.6.9-.8.8s0-.3.2-.8c.2-.6,0-1.1,0-1.1,0,0-.1,0-.2.2-.4,1.1-.5,1-.8,1.6-.3.5-.1,1.1.5,1.2,1.5.3,1.7-2.2,1.6-2.6ZM52.4,58.8s-.2,0-.4,0c-.1,0-.1,0-.5.7-.5.7-.8,1.1-.5,2.2.4-.4,1-.4,1.4,0,0,0,.1-.6.1-1-.1-.2-.3-.3-.6-.4-.3,0-.2-.4.2-.4.3,0,.5.2.5.2,0,0,0-.2,0-.8,0-.6-.3-.8-.3-.8ZM53.8,61.9c-.4-.1-.6.2-.6.2,0,0,.2.3.2.8,0,.5-.3.8-.3.8h0c.2,0,1.1-.3,1.1-1.1,0-.1,0-.4-.4-.6ZM54,58.7c-.4-.1-.7-.1-.9,0,.4.8.2,1.5.2,1.5,0,0,.5,0,.5.1,0,.2-.2.3-.4.3-.2,0-.3.2-.3.2,0,0,0,.2-.2.8.3-.3,1-.5,1.6.2.2-.9,0-2.7-.6-3.1ZM57.9,38.6c0,.1-.2,1.3-.2,1.3,0,0,0,.1.2.2.2.1.3,0,.3,0,0,0,0-.4,0-.6,0-.2,0-.8-.2-1,0,0-.1,0-.2-.1,0,0,0,.2,0,.2ZM58.5,44.1s.2,0,.3-.1c0-.2,0-.7,0-.7,0,0-1.2-.5-1.7-1.1-.4-.5-.5-.8-.5-1,0-.1-.2-.3-.2-.1s0,1.6.8,2.3c.4.4,1.3.7,1.3.7ZM54,29.6c.3-.3.6-.4.7-.3.1.2-.8.9-.7,1,0,.1.6-.4.7-.3,0,0,0,.1,0,.2,0,0-.3.4-.2.5.1.1.3-.2.4-.4.2-.2.4-.3.6-.3s.9,0,1.5-.4c.6-.4.7-1,.7-1.3s-.1-.7-.2-.8c0-.1,0,0-.3.4-.2.3-.5.5-.8.6-.4.1-.8,0-1.5,0s-1.1.5-1.4.8c-.4.4-.9.7-.8.7.1,0,.5,0,1-.4ZM55.1,29.5c.1-.2.3-.4.4-.4.2,0,.5-.1.7-.1.4,0,.6,0,.9-.1.2,0,.3-.1.4-.3,0,0,0,.1,0,.2,0,0-.3.7-1.1.7-.8,0-1,.1-1.2.3,0,0-.1-.1,0-.2ZM51.2,29.8c.3-.2.6,0,.7.3,0,.2.2.2.3.1.2-.2,0-.8-.4-1-.4-.2-.8.1-.9.4,0,.2.2.2.3.2ZM51.5,28.8c.4-.2.8-.1,1.1.5,0,.1.2.1.3,0,.1-.2,0-1-.6-1.1-.6-.2-1.1.3-1.2.5,0,.2.2.2.4,0ZM54.9,58.4c1.3-3,2.2-12.1,2.2-13.3,0-.5-.6-1.1-1.1-2.5,0,0-.2-.1-.2,0,.4,5.9-1.3,14.8-1.3,15,0,.4.3,1,.4.8ZM51.8,53.5c.9-.4,0-1.9-.3-2.1-.2-.2-.4-.4-.4-.4,0,0-.2,0-.2,0,0,.7.6,1.3.4,1.3-.3.1-.8-1.1-.8-1.1,0,0-.3,0-.3.5,0,.5.6,2,1.6,1.6ZM51,48.8c0-1.5-.5-1.5-.5-1.5,0,0,0,.1,0,.3,0,.1.1.5.1.9s-.2,1-.3.9c0,0,0-.3,0-.5,0-.3,0-.5-.1-.5s0,.3-.1.8c0,.6-.3.9-.5.7,0,0,.1-.2.1-.8,0-.5,0-1.1-.3-1.1-.3,0,0,.5-.2.5-.1,0-.2,0-.2-.4,0-.4.2-1,.2-1.2,0-.1,0-.3,0-.3,0,0-.5.5-.6,2,0,1,.4,2.1,1.3,2.1s1.3-1.2,1.3-2.1ZM52.5,48.2c.6-.1.8-.7.5-1.2-.3-.5-.4-.5-.8-1.6,0-.2-.2-.2-.2-.2,0,0-.1.5,0,1.1.1.5.4.7.2.8s-.6-.4-.8-.8c-.2-.4-.3-1.1-.3-1.1,0,0-.2,0-.2.3,0,.4,0,2.9,1.6,2.6ZM47.6,29.3c-.5.2-.5.7-.4,1,.2,0,.3,0,.3-.1,0-.3.4-.4.7-.3.1,0,.3,0,.3-.2,0-.2-.5-.5-.9-.4ZM42.2,29.6c.6.4,1.3.4,1.5.4s.5,0,.6.3c.1.2.3.5.4.4.1-.1-.1-.4-.2-.5,0,0,0-.2,0-.2.1-.1.6.4.7.3,0-.1-.8-.8-.7-1,.1-.2.4,0,.7.3.5.5.9.5,1,.4,0,0-.5-.4-.8-.7-.3-.3-.7-.7-1.4-.8s-1.1,0-1.5,0c-.3,0-.6-.3-.8-.6-.2-.4-.2-.5-.3-.4s-.2.5-.2.8.1.9.7,1.3ZM42,28.5c.1.1.2.2.4.3.3.1.5.1.9.1s.5,0,.7.1c0,0,.2.3.4.4,0,.1,0,.3,0,.2-.2-.2-.4-.3-1.2-.3-.8,0-1.1-.7-1.1-.7,0,0,0-.2,0-.2ZM49.1,28.8c.1-.2.4-.3.7-.3s.5.1.7.3c0,.1.3.1.3,0,0-.5-.6-.8-1-.8s-.9.2-1,.8c0,.2.2.2.3,0ZM41.6,40.1c.2-.1.2-.2.2-.2,0,0-.2-1.1-.2-1.3,0,0,0-.2,0-.2,0,0-.1,0-.2.1-.1.3-.2.8-.2,1,0,.3,0,.6,0,.6,0,0,.1,0,.3,0ZM40.7,42.5c.2,0,1.1-.6,1.5-1.1.4-.5,1-2.2,1-2.4,0-.2-.2-.2-.2,0,0,.1-.5,1-.9,1.6-.5.6-1.7,1.2-1.7,1.2,0,.1,0,.6.3.7ZM46.9,29.3c.2-.6.7-.6,1.1-.5.2,0,.3,0,.4,0,0-.3-.5-.7-1.2-.5-.6.2-.7.9-.6,1.1.2,0,.3,0,.3,0ZM43.9,58.6c-1.6-4.8-2.3-11.9-2.3-12.7,0,0,0,0,0,0-.1,0-.4.5-.6.7-.2.2.9,8.1,2.6,12,.1,0,.3.1.4,0ZM41.5,44.7s0,0,0,0c0,0-.3,0-.3,0,0,0-.1.1-.2.2s-.4.4-.6.5c-.2.1-.3.3-.2.5.1.2.3.2.3.2,0,0,.2-.2.5-.6.3-.4.5-.9.5-.9ZM63.7,63.6c-1.1-.8-2.6-1.2-4-1.1l-1.8-1.3c-.4-.3-.7-.5-1.1-.6,0,.2,0,.5,0,.8.3.1.5.3.7.4,0,0,1.2.9,1.2.9-.6.2-1.3.5-1.8.9l-3,2.2c-.4-.3-2.9-2.2-3.4-2.5,0,0,0,0,0,0,0,0,0,0,0,0,0-.1-.2-.4-.2-.7l-.4.3-.7-.5c0,.3-.1.6-.2.8l.2.2h0s.7.5.7.5h0c.3.2,3.2,2.4,3.4,2.5h0l.7.5h0l.4.3,1.3,1s-1.1.8-1.1.8c-.2-.2-1.9-1.4-2.1-1.5-1.3-.9-3.1-1.1-4.5-.4h0c-.1,0-.3.1-.4.2l-1.8-1.3c-1.1-.8-3.4-2.8-4.8-3.1l1.2-.9c.2-.1.3-.2.5-.3,0-.3,0-.6,0-.8-.3.1-.6.3-.9.5l-1.8,1.3c-1.4-.1-2.8.3-4,1.1l-3.5,2.6c.2.2.4.4.6.6l3.4-2.5c1.1-.8,2.4-1.1,3.7-.9h0c.8.1,1.5.4,2.2.9l4.5,3.3-1.8,1.3-1-.7c-1.7-1.3-4.1-1.1-5.7.3-.4.3-1.3,1-1.7,1.2.2.2.5.3.7.5.4-.3,1.1-.8,1.4-1.1h0c1.3-1.2,3.3-1.4,4.8-.3,0,0,6.5,4.8,6.5,4.8.2,0,.3,0,.5,0h0c.3,0,.5,0,.8,0-.2-.2-5-3.6-5.7-4.2.4-.3,2-1.6,2.5-1.8h0c.1,0,.3-.1.4-.2h0c1.1-.4,2.4-.2,3.3.5,0,0,4.8,3.5,5.8,4.3h0s0,0,0,0h0c.3,0,.5-.2.8-.3-1-.7-2.5-1.8-3.5-2.6l.8-.6c1.1-.8,2.7-.9,4-.2h0c.5.3,1.8,1.3,2.3,1.6h0c.2-.1.5-.3.7-.5-.5-.3-1.9-1.4-2.3-1.7h0c-1.2-.8-2.9-1-4.2-.4l-1.9-1.4,2.8-2c.7-.5,1.4-.8,2.2-.9h0c1.3-.2,2.6.1,3.7.9l3.4,2.5c.2-.2.4-.4.6-.6l-3.5-2.6ZM49.6,85c-19.5,0-35.4-15.9-35.4-35.4S30.1,14.2,49.6,14.2s35.4,15.9,35.4,35.4-15.9,35.4-35.4,35.4ZM49.6,14.9c-19.1,0-34.7,15.6-34.7,34.7s15.6,34.7,34.7,34.7,34.7-15.6,34.7-34.7S68.8,14.9,49.6,14.9Z"/>
  </g>
</svg>